<?xml version="1.0" encoding="utf-8"?>
<!-- Generator: Adobe Illustrator 22.0.0, SVG Export Plug-In . SVG Version: 6.00 Build 0)  -->
<svg version="1.1" id="Layer_1" xmlns="http://www.w3.org/2000/svg" xmlns:xlink="http://www.w3.org/1999/xlink" x="0px" y="0px"
	 viewBox="0 0 1920 1080" style="enable-background:new 0 0 1920 1080;" xml:space="preserve">
<g>
	<g>
		<g>
			<path d="M207.3,325.4v4.7h-26.2v67.7H169v-67.7h-26.2v-4.7H207.3z"/>
		</g>
		<g>
			<path d="M240.6,398.9c-3.8,0-7.3-0.7-10.6-2.1c-3.3-1.4-6.2-3.3-8.7-5.8c-2.5-2.4-4.4-5.3-5.9-8.6c-1.4-3.3-2.2-6.8-2.2-10.5
				c0-4.5,0.7-8.6,2-12.4c1.3-3.8,3.2-7.1,5.6-9.9c2.4-2.8,5.3-4.9,8.6-6.5c3.4-1.6,7.1-2.3,11.2-2.3c3.7,0,7,0.6,10.1,1.9
				c3,1.3,5.7,3,7.8,5.2c2.2,2.2,3.9,4.7,5.1,7.5c1.2,2.8,1.8,5.8,1.8,8.9H224c0,3.7,0.5,7.2,1.5,10.4c1,3.2,2.3,6,4.1,8.3
				c1.7,2.3,3.8,4.1,6.2,5.5c2.4,1.3,5.1,2,7.9,2c2.4,0,4.7-0.4,7-1.2c2.2-0.8,4.2-1.8,6-3.1c1.8-1.3,3.3-2.7,4.6-4.4
				c1.3-1.6,2.2-3.3,2.7-5.1l3.2,1.4c-0.8,2.9-2.1,5.6-3.9,8.1c-1.8,2.5-3.9,4.7-6.2,6.6c-2.4,1.9-5,3.3-7.8,4.4
				C246.4,398.4,243.5,398.9,240.6,398.9z M251.7,359.9c0-2.1-0.4-4.1-1.1-5.9c-0.7-1.8-1.8-3.4-3.1-4.7c-1.3-1.3-2.8-2.4-4.6-3.1
				c-1.7-0.8-3.6-1.1-5.6-1.1c-1.7,0-3.3,0.4-4.8,1.1c-1.5,0.8-2.9,1.8-4.1,3.1c-1.2,1.3-2.2,2.9-3,4.7c-0.8,1.8-1.3,3.8-1.4,5.9
				L251.7,359.9z"/>
		</g>
		<g>
			<path d="M289,397.7H278v-81.2l7.9-3.2h3.2V397.7z"/>
		</g>
		<g>
			<path d="M327.3,398.9c-3.8,0-7.3-0.7-10.6-2.1c-3.3-1.4-6.2-3.3-8.7-5.8c-2.5-2.4-4.4-5.3-5.9-8.6c-1.4-3.3-2.2-6.8-2.2-10.5
				c0-4.5,0.7-8.6,2-12.4c1.3-3.8,3.2-7.1,5.6-9.9c2.4-2.8,5.3-4.9,8.6-6.5c3.4-1.6,7.1-2.3,11.2-2.3c3.7,0,7,0.6,10.1,1.9
				c3,1.3,5.7,3,7.8,5.2c2.2,2.2,3.9,4.7,5.1,7.5c1.2,2.8,1.8,5.8,1.8,8.9h-41.6c0,3.7,0.5,7.2,1.5,10.4c1,3.2,2.3,6,4.1,8.3
				c1.7,2.3,3.8,4.1,6.2,5.5c2.4,1.3,5.1,2,7.9,2c2.4,0,4.7-0.4,7-1.2c2.2-0.8,4.2-1.8,6-3.1c1.8-1.3,3.3-2.7,4.6-4.4
				c1.3-1.6,2.2-3.3,2.7-5.1l3.2,1.4c-0.8,2.9-2.1,5.6-3.9,8.1c-1.8,2.5-3.9,4.7-6.2,6.6c-2.4,1.9-5,3.3-7.8,4.4
				C333,398.4,330.1,398.9,327.3,398.9z M338.3,359.9c0-2.1-0.4-4.1-1.1-5.9c-0.7-1.8-1.8-3.4-3.1-4.7c-1.3-1.3-2.8-2.4-4.6-3.1
				c-1.7-0.8-3.6-1.1-5.6-1.1c-1.7,0-3.3,0.4-4.8,1.1c-1.5,0.8-2.9,1.8-4.1,3.1c-1.2,1.3-2.2,2.9-3,4.7c-0.8,1.8-1.3,3.8-1.4,5.9
				L338.3,359.9z"/>
		</g>
		<g>
			<path d="M396.8,341.9v4.7h-14.9v51.1h-11.1v-51.1h-11.7v-4.7h11.7v-6.5c0-3,0.5-5.9,1.6-8.6c1.1-2.7,2.6-5,4.4-7
				c1.9-2,4.1-3.6,6.6-4.7c2.5-1.1,5.2-1.7,8.1-1.7c2.5,0,4.6,0.3,6.6,0.8c1.9,0.5,3.5,1.2,4.9,2c1.3,0.8,2.3,1.9,3,3
				c0.7,1.2,1,2.4,1,3.7c0,0.8-0.2,1.6-0.5,2.2c-0.3,0.6-0.7,1.2-1.2,1.6c-0.5,0.5-1.1,0.8-1.8,1c-0.7,0.2-1.4,0.4-2.2,0.4
				c-1.4,0-2.4-0.3-3.1-0.8c-0.7-0.5-1.3-1.2-1.6-2c-0.4-0.8-0.7-1.7-0.9-2.6c-0.2-0.9-0.5-1.8-1-2.6c-0.4-0.8-1-1.5-1.8-2
				c-0.8-0.5-1.9-0.8-3.3-0.8c-1.1,0-2.1,0.3-3.1,1c-1,0.6-1.8,1.5-2.4,2.5s-1.2,2.2-1.6,3.6c-0.4,1.4-0.6,2.7-0.6,4.2v13.2H396.8z"
				/>
		</g>
		<g>
			<path d="M433.1,398.9c-4.3,0-8.2-0.7-11.8-2.2c-3.6-1.5-6.7-3.5-9.3-6.1c-2.6-2.6-4.7-5.6-6.1-9c-1.5-3.4-2.2-7.1-2.2-11
				c0-4.1,0.7-8,2.2-11.6c1.5-3.6,3.5-6.8,6.1-9.5c2.6-2.7,5.7-4.8,9.3-6.4c3.6-1.6,7.6-2.3,11.8-2.3c4.3,0,8.2,0.7,11.8,2.1
				c3.6,1.4,6.7,3.4,9.3,5.8c2.6,2.5,4.7,5.4,6.2,8.7c1.5,3.3,2.2,6.9,2.2,10.7c0,4.2-0.7,8.2-2.2,11.9c-1.5,3.7-3.5,7-6.2,9.8
				c-2.6,2.8-5.7,5-9.3,6.6S437.4,398.9,433.1,398.9z M435.2,394.8c2.2,0,4.2-0.6,6-1.7c1.8-1.1,3.4-2.6,4.7-4.5
				c1.3-1.9,2.4-4.1,3.1-6.6c0.7-2.5,1.1-5.2,1.1-8c0-4.1-0.3-7.8-1-11.3c-0.7-3.5-1.8-6.6-3.4-9.2c-1.6-2.6-3.6-4.7-6.1-6.2
				c-2.5-1.5-5.6-2.3-9.2-2.3c-1.9,0-3.7,0.5-5.4,1.6c-1.7,1.1-3.3,2.5-4.6,4.4c-1.3,1.9-2.4,4.1-3.2,6.5c-0.8,2.5-1.2,5.1-1.2,7.9
				c0,4.1,0.4,7.9,1.3,11.4c0.9,3.6,2.1,6.7,3.7,9.3c1.6,2.6,3.6,4.7,6,6.3C429.5,394,432.2,394.8,435.2,394.8z"/>
		</g>
		<g>
			<path d="M473.2,341.9h11.1v10.2c3.4-3.8,6.9-6.6,10.5-8.5c3.6-1.9,7.3-2.8,11.1-2.8c1.9,0,3.8,0.4,5.5,1.3
				c1.7,0.9,3.2,2.1,4.5,3.6c1.3,1.5,2.3,3.3,3,5.4c0.7,2.1,1.1,4.3,1.1,6.6v40h-11.1v-38.2c0-3.7-0.8-6.5-2.5-8.4
				c-1.7-1.9-3.8-2.9-6.4-2.9c-1.2,0-2.4,0.2-3.7,0.6c-1.3,0.4-2.6,0.9-4,1.6c-1.4,0.7-2.7,1.6-4.1,2.5c-1.4,1-2.6,2.1-3.9,3.3v41.3
				h-11.1V341.9z"/>
		</g>
		<g>
			<path d="M559.8,398.9c-4.3,0-8.2-0.7-11.8-2.2s-6.7-3.5-9.3-6.1c-2.6-2.6-4.7-5.6-6.1-9c-1.5-3.4-2.2-7.1-2.2-11
				c0-4.1,0.7-8,2.2-11.6c1.5-3.6,3.5-6.8,6.1-9.5c2.6-2.7,5.7-4.8,9.3-6.4c3.6-1.6,7.6-2.3,11.8-2.3c4.3,0,8.2,0.7,11.8,2.1
				c3.6,1.4,6.7,3.4,9.3,5.8c2.6,2.5,4.7,5.4,6.2,8.7c1.5,3.3,2.2,6.9,2.2,10.7c0,4.2-0.7,8.2-2.2,11.9c-1.5,3.7-3.5,7-6.2,9.8
				c-2.6,2.8-5.7,5-9.3,6.6C568,398.1,564.1,398.9,559.8,398.9z M561.9,394.8c2.2,0,4.2-0.6,6-1.7c1.8-1.1,3.4-2.6,4.7-4.5
				c1.3-1.9,2.4-4.1,3.1-6.6c0.7-2.5,1.1-5.2,1.1-8c0-4.1-0.3-7.8-1-11.3c-0.7-3.5-1.8-6.6-3.4-9.2c-1.6-2.6-3.6-4.7-6.1-6.2
				c-2.5-1.5-5.6-2.3-9.2-2.3c-1.9,0-3.7,0.5-5.4,1.6c-1.7,1.1-3.3,2.5-4.6,4.4c-1.3,1.9-2.4,4.1-3.2,6.5c-0.8,2.5-1.2,5.1-1.2,7.9
				c0,4.1,0.4,7.9,1.3,11.4c0.9,3.6,2.1,6.7,3.7,9.3c1.6,2.6,3.6,4.7,6,6.3C556.2,394,558.9,394.8,561.9,394.8z"/>
		</g>
		<g>
			<path d="M605.4,347.8c0.8,0,1.6,0.2,2.3,0.5c0.7,0.3,1.3,0.7,1.9,1.2c0.5,0.5,1,1.1,1.3,1.8c0.3,0.7,0.5,1.4,0.5,2.2
				c0,0.8-0.2,1.5-0.5,2.3c-0.3,0.7-0.7,1.3-1.3,1.8c-0.5,0.5-1.2,0.9-1.9,1.2c-0.7,0.3-1.5,0.4-2.3,0.4s-1.6-0.1-2.3-0.4
				c-0.7-0.3-1.4-0.7-1.9-1.2c-0.5-0.5-1-1.1-1.3-1.8c-0.3-0.7-0.5-1.5-0.5-2.3c0-0.8,0.2-1.5,0.5-2.2c0.3-0.7,0.7-1.3,1.3-1.8
				c0.5-0.5,1.2-0.9,1.9-1.2S604.5,347.8,605.4,347.8z M605.4,388c0.8,0,1.6,0.1,2.3,0.4c0.7,0.3,1.3,0.7,1.9,1.2
				c0.5,0.5,1,1.1,1.3,1.8c0.3,0.7,0.5,1.4,0.5,2.2c0,0.8-0.2,1.5-0.5,2.3c-0.3,0.7-0.7,1.3-1.3,1.8c-0.5,0.5-1.2,0.9-1.9,1.2
				c-0.7,0.3-1.5,0.4-2.3,0.4s-1.6-0.1-2.3-0.4c-0.7-0.3-1.4-0.7-1.9-1.2c-0.5-0.5-1-1.1-1.3-1.8c-0.3-0.7-0.5-1.5-0.5-2.3
				c0-0.8,0.2-1.5,0.5-2.2c0.3-0.7,0.7-1.3,1.3-1.8c0.5-0.5,1.2-0.9,1.9-1.2C603.7,388.1,604.5,388,605.4,388z"/>
		</g>
		<g>
			<path d="M667.7,360.1c2.7-0.3,5.2-0.9,7.5-1.9c2.3-0.9,4.2-2.1,5.9-3.6c1.6-1.5,2.9-3.2,3.8-5.2c0.9-2,1.4-4.2,1.4-6.5
				c0-1.6-0.3-3.1-0.9-4.5c-0.6-1.4-1.5-2.6-2.6-3.7s-2.5-1.9-4.1-2.4c-1.6-0.6-3.4-0.9-5.3-0.9c-1.4,0-2.8,0.2-4.3,0.7
				c-1.5,0.5-2.9,1.1-4.3,1.9c-1.4,0.8-2.6,1.8-3.8,2.9c-1.2,1.1-2.1,2.3-2.8,3.5l-2.1-0.8c0.8-2.2,1.8-4.2,3.1-6.2
				c1.3-1.9,2.8-3.6,4.6-5c1.8-1.4,3.9-2.6,6.2-3.4c2.3-0.8,4.9-1.2,7.7-1.2c2.6,0,5.1,0.4,7.4,1.2c2.3,0.8,4.3,1.9,6,3.2
				c1.7,1.4,3.1,3,4.1,4.9c1,1.9,1.5,3.9,1.5,6.1c0,1.1-0.3,2.4-0.9,3.7c-0.6,1.4-1.4,2.8-2.4,4.2c-1,1.4-2.2,2.8-3.5,4.2
				c-1.3,1.4-2.7,2.6-4.2,3.6c2.1,0.6,4,1.6,5.8,2.9c1.8,1.3,3.4,2.8,4.8,4.6c1.4,1.7,2.4,3.6,3.2,5.6c0.8,2,1.2,4,1.2,6
				c0,4.3-0.8,8-2.5,11.2c-1.7,3.2-4,5.8-6.9,8c-2.9,2.1-6.4,3.7-10.4,4.8c-4,1.1-8.3,1.6-13,1.6c-2,0-3.7-0.1-5.3-0.4
				c-1.6-0.3-2.9-0.7-4-1.2c-1.1-0.5-1.9-1.1-2.5-1.9c-0.6-0.7-0.9-1.5-0.9-2.4c0-0.8,0.2-1.4,0.6-1.9c0.4-0.5,0.9-0.9,1.5-1.2
				c0.6-0.3,1.2-0.5,1.9-0.7c0.7-0.1,1.4-0.2,2-0.2c1.3,0,2.4,0.1,3.3,0.4c0.9,0.3,1.8,0.6,2.5,1c0.7,0.4,1.4,0.8,2,1.2
				c0.6,0.4,1.3,0.8,2,1.2c0.7,0.4,1.5,0.7,2.3,1c0.8,0.3,1.9,0.4,3,0.4c2.5,0,4.8-0.4,6.7-1.2c1.9-0.8,3.5-1.9,4.9-3.3
				c1.3-1.4,2.3-3,3-4.8c0.7-1.8,1-3.7,1-5.7c0-2.5-0.5-4.8-1.4-7c-1-2.1-2.4-4-4.4-5.6c-2-1.6-4.5-2.8-7.5-3.7s-6.6-1.3-10.6-1.3
				V360.1z"/>
		</g>
		<g>
			<path d="M740,397.7v-61.2h-12.2v-3.1c4.4,0,8-0.9,10.6-2.6c2.6-1.7,4.7-4.1,6.2-7.1h5.7v74H740z"/>
		</g>
		<g>
			<path d="M775.7,397.7v-1.9c5.4-5.1,10-9.6,13.9-13.5c3.9-3.9,7.3-7.3,10-10.3c2.7-3,5-5.6,6.7-7.8c1.7-2.2,3-4.2,4-6
				c1-1.8,1.6-3.4,1.9-4.9c0.3-1.5,0.5-3,0.5-4.4c0-2.1-0.3-4.2-1-6.2c-0.7-2-1.7-3.8-3-5.3c-1.3-1.6-3-2.8-4.9-3.7
				c-2-0.9-4.2-1.4-6.8-1.4c-2,0-4,0.3-5.9,1c-1.9,0.7-3.7,1.6-5.3,2.8c-1.6,1.2-2.9,2.6-4,4.2c-1.1,1.6-1.8,3.3-2.1,5.1h-2.1
				c0.2-3,1-5.8,2.3-8.4c1.4-2.6,3.1-4.9,5.2-6.9c2.1-2,4.5-3.5,7.2-4.6c2.7-1.1,5.5-1.7,8.5-1.7c3.7,0,7,0.5,9.9,1.6
				c2.8,1.1,5.2,2.5,7.1,4.3c1.9,1.8,3.3,3.9,4.3,6.3c1,2.4,1.5,4.9,1.5,7.6c0,2.8-0.6,5.6-1.8,8.5c-1.2,2.9-3.2,6.1-6,9.6
				c-2.8,3.5-6.4,7.5-10.8,12c-4.4,4.5-9.9,9.8-16.3,15.8h38.7l-5.4,8.2H775.7z"/>
		</g>
		<g>
			<path d="M851.6,360.1c2.7-0.3,5.2-0.9,7.5-1.9c2.3-0.9,4.2-2.1,5.9-3.6c1.6-1.5,2.9-3.2,3.8-5.2c0.9-2,1.4-4.2,1.4-6.5
				c0-1.6-0.3-3.1-0.9-4.5c-0.6-1.4-1.5-2.6-2.6-3.7s-2.5-1.9-4.1-2.4c-1.6-0.6-3.4-0.9-5.3-0.9c-1.4,0-2.8,0.2-4.3,0.7
				c-1.5,0.5-2.9,1.1-4.3,1.9c-1.4,0.8-2.6,1.8-3.8,2.9c-1.2,1.1-2.1,2.3-2.8,3.5l-2.1-0.8c0.8-2.2,1.8-4.2,3.1-6.2
				c1.3-1.9,2.8-3.6,4.6-5c1.8-1.4,3.9-2.6,6.2-3.4c2.3-0.8,4.9-1.2,7.7-1.2c2.6,0,5.1,0.4,7.4,1.2c2.3,0.8,4.3,1.9,6,3.2
				c1.7,1.4,3.1,3,4.1,4.9c1,1.9,1.5,3.9,1.5,6.1c0,1.1-0.3,2.4-0.9,3.7c-0.6,1.4-1.4,2.8-2.4,4.2c-1,1.4-2.2,2.8-3.5,4.2
				c-1.3,1.4-2.7,2.6-4.2,3.6c2.1,0.6,4,1.6,5.8,2.9c1.8,1.3,3.4,2.8,4.8,4.6c1.4,1.7,2.4,3.6,3.2,5.6c0.8,2,1.2,4,1.2,6
				c0,4.3-0.8,8-2.5,11.2c-1.7,3.2-4,5.8-6.9,8c-2.9,2.1-6.4,3.7-10.4,4.8c-4,1.1-8.3,1.6-13,1.6c-2,0-3.7-0.1-5.3-0.4
				c-1.6-0.3-2.9-0.7-4-1.2c-1.1-0.5-1.9-1.1-2.5-1.9c-0.6-0.7-0.9-1.5-0.9-2.4c0-0.8,0.2-1.4,0.6-1.9c0.4-0.5,0.9-0.9,1.5-1.2
				c0.6-0.3,1.2-0.5,1.9-0.7c0.7-0.1,1.4-0.2,2-0.2c1.3,0,2.4,0.1,3.3,0.4c0.9,0.3,1.8,0.6,2.5,1c0.7,0.4,1.4,0.8,2,1.2
				c0.6,0.4,1.3,0.8,2,1.2c0.7,0.4,1.5,0.7,2.3,1c0.8,0.3,1.9,0.4,3,0.4c2.5,0,4.8-0.4,6.7-1.2c1.9-0.8,3.5-1.9,4.9-3.3
				c1.3-1.4,2.3-3,3-4.8c0.7-1.8,1-3.7,1-5.7c0-2.5-0.5-4.8-1.4-7c-1-2.1-2.4-4-4.4-5.6c-2-1.6-4.5-2.8-7.5-3.7s-6.6-1.3-10.6-1.3
				V360.1z"/>
		</g>
		<g>
			<path d="M943.3,334.3h-23.4l-5.4,9.8c4.5,0,8.8,0.7,12.8,2.1c4,1.4,7.5,3.4,10.6,5.9c3,2.5,5.4,5.5,7.2,9
				c1.8,3.5,2.7,7.2,2.7,11.3c0,3.7-0.8,7.2-2.4,10.5c-1.7,3.3-3.9,6.2-6.9,8.6c-2.9,2.4-6.3,4.4-10.3,5.8
				c-3.9,1.4-8.1,2.1-12.6,2.1c-2,0-3.9-0.2-5.6-0.6c-1.7-0.4-3.1-0.9-4.3-1.6s-2.1-1.4-2.8-2.3c-0.7-0.9-1-1.8-1-2.8
				c0-1.3,0.5-2.3,1.5-2.9c1-0.6,2.2-0.9,3.5-0.9c1.5,0,2.7,0.3,3.7,0.8c1,0.6,2.1,1.2,3.1,1.8c1.1,0.7,2.3,1.3,3.6,1.8
				c1.3,0.6,3,0.8,5.1,0.8c2.4,0,4.6-0.5,6.7-1.4c2.1-0.9,3.9-2.2,5.5-3.8c1.6-1.6,2.8-3.5,3.7-5.7c0.9-2.2,1.4-4.5,1.4-7
				c0-3.4-0.8-6.4-2.5-9.1c-1.7-2.7-4.1-5-7.2-7c-3.1-1.9-6.9-3.4-11.3-4.5c-4.4-1.1-9.3-1.6-14.8-1.6l15.5-28.3h28.5L943.3,334.3z"
				/>
		</g>
		<g>
			<path d="M959.5,397.7v-1.9c5.4-5.1,10-9.6,13.9-13.5c3.9-3.9,7.3-7.3,10-10.3c2.7-3,5-5.6,6.7-7.8c1.7-2.2,3-4.2,4-6
				c1-1.8,1.6-3.4,1.9-4.9c0.3-1.5,0.5-3,0.5-4.4c0-2.1-0.3-4.2-1-6.2c-0.7-2-1.7-3.8-3-5.3c-1.3-1.6-3-2.8-4.9-3.7
				c-2-0.9-4.2-1.4-6.8-1.4c-2,0-4,0.3-5.9,1c-1.9,0.7-3.7,1.6-5.3,2.8c-1.6,1.2-2.9,2.6-4,4.2c-1.1,1.6-1.8,3.3-2.1,5.1h-2.1
				c0.2-3,1-5.8,2.3-8.4c1.4-2.6,3.1-4.9,5.2-6.9c2.1-2,4.5-3.5,7.2-4.6c2.7-1.1,5.5-1.7,8.5-1.7c3.7,0,7,0.5,9.9,1.6
				c2.8,1.1,5.2,2.5,7.1,4.3c1.9,1.8,3.3,3.9,4.3,6.3c1,2.4,1.5,4.9,1.5,7.6c0,2.8-0.6,5.6-1.8,8.5c-1.2,2.9-3.2,6.1-6,9.6
				c-2.8,3.5-6.4,7.5-10.8,12c-4.4,4.5-9.9,9.8-16.3,15.8h38.7l-5.4,8.2H959.5z"/>
		</g>
		<g>
			<path d="M1046.7,399.4c-4,0-7.7-0.9-10.9-2.8c-3.3-1.9-6.1-4.5-8.4-7.9c-2.3-3.4-4.1-7.4-5.4-12.1c-1.3-4.7-1.9-9.8-1.9-15.4
				c0-5.1,0.6-10,1.9-14.5c1.3-4.5,3.1-8.5,5.4-11.9s5.1-6.1,8.4-8c3.3-2,6.9-3,10.9-3c4,0,7.7,1,10.9,3c3.3,2,6.1,4.7,8.4,8
				s4.1,7.4,5.4,11.9c1.3,4.5,1.9,9.4,1.9,14.5c0,5.6-0.6,10.8-1.9,15.4c-1.3,4.7-3.1,8.7-5.4,12.1c-2.3,3.4-5.1,6-8.4,7.9
				C1054.4,398.5,1050.7,399.4,1046.7,399.4z M1046.7,395.8c1.6,0,3.1-0.4,4.5-1.3c1.4-0.9,2.6-2.1,3.7-3.6c1.1-1.6,2-3.4,2.8-5.6
				c0.8-2.1,1.5-4.5,2-7.1c0.5-2.6,0.9-5.3,1.2-8.2s0.4-5.9,0.4-8.9c0-4.6-0.3-8.9-0.9-13c-0.6-4.1-1.5-7.7-2.7-10.8
				c-1.2-3.1-2.7-5.5-4.5-7.3c-1.8-1.8-4-2.7-6.4-2.7c-2.5,0-4.6,0.9-6.4,2.7c-1.8,1.8-3.3,4.3-4.5,7.3c-1.2,3.1-2.1,6.7-2.7,10.8
				c-0.6,4.1-0.9,8.4-0.9,13c0,3,0.1,6,0.4,8.9s0.7,5.6,1.2,8.2c0.5,2.6,1.2,4.9,2,7.1c0.8,2.1,1.7,4,2.8,5.6
				c1.1,1.6,2.3,2.8,3.6,3.6C1043.6,395.4,1045.1,395.8,1046.7,395.8z"/>
		</g>
		<g>
			<path d="M1107.1,323.7c3.3,0,6.3,0.4,9,1.2c2.8,0.8,5.1,1.9,7.1,3.4c2,1.5,3.5,3.2,4.7,5.2c1.1,2,1.7,4.1,1.7,6.5
				c0,1.5-0.5,3.1-1.4,4.8c-1,1.7-2.2,3.4-3.8,5c-1.6,1.6-3.3,3.1-5.3,4.5c-2,1.4-4.1,2.4-6.2,3.2c3.1,1.8,5.8,3.7,8.2,5.8
				c2.3,2,4.3,4.1,5.8,6.1c1.5,2,2.7,4,3.5,5.9c0.8,1.9,1.1,3.6,1.1,5c0,2.6-0.6,5.1-1.8,7.4c-1.2,2.3-2.9,4.4-5,6.1
				c-2.1,1.7-4.6,3.1-7.4,4.1c-2.8,1-5.8,1.5-9,1.5c-3.4,0-6.5-0.5-9.3-1.4c-2.8-0.9-5.3-2.1-7.3-3.7c-2-1.6-3.6-3.5-4.8-5.6
				c-1.1-2.2-1.7-4.5-1.7-7c0-2.3,0.4-4.4,1.1-6.3s1.8-3.6,3.1-5.2c1.4-1.6,3-3.2,5-4.6c2-1.5,4.1-2.9,6.6-4.4
				c-2.6-1.9-4.9-3.7-6.7-5.3c-1.9-1.6-3.4-3.2-4.6-4.7c-1.2-1.5-2.1-3.1-2.6-4.8c-0.6-1.6-0.8-3.4-0.8-5.5c0-2.4,0.5-4.6,1.6-6.7
				c1.1-2.1,2.6-3.9,4.5-5.5c1.9-1.6,4.1-2.8,6.6-3.7C1101.5,324.2,1104.3,323.7,1107.1,323.7z M1103.7,363.1
				c-1.7,1.4-3.1,2.8-4.3,4.3c-1.2,1.5-2.1,3.1-2.9,4.6c-0.7,1.6-1.3,3.1-1.6,4.6c-0.3,1.5-0.5,2.9-0.5,4.1c0,2.1,0.4,4,1.1,5.8
				c0.7,1.8,1.8,3.4,3.1,4.8s2.8,2.4,4.5,3.2c1.7,0.8,3.6,1.2,5.5,1.2c2,0,3.9-0.3,5.7-0.8c1.8-0.6,3.3-1.3,4.6-2.2
				c1.3-0.9,2.4-2,3.1-3.3c0.8-1.3,1.1-2.6,1.1-4.1c0-1-0.2-2.1-0.6-3.3c-0.4-1.2-1-2.4-1.7-3.5c-0.7-1.2-1.5-2.3-2.5-3.4
				c-0.9-1.1-1.9-2-3-2.8L1103.7,363.1z M1110.2,355.5c1.6-1.2,3-2.5,4.3-3.8c1.3-1.3,2.4-2.7,3.3-4.2c0.9-1.5,1.6-3,2.1-4.7
				c0.5-1.6,0.8-3.4,0.8-5.3c0-1.4-0.3-2.8-0.9-4c-0.6-1.2-1.5-2.3-2.6-3.2c-1.2-0.9-2.6-1.6-4.2-2.2c-1.6-0.5-3.5-0.8-5.6-0.8
				c-1.8,0-3.5,0.3-5.1,0.9c-1.5,0.6-2.9,1.4-4,2.4c-1.1,1-2,2.1-2.6,3.4c-0.6,1.3-0.9,2.6-0.9,3.9c0,1.8,0.5,3.5,1.4,5.1
				c1,1.6,2.2,3.2,3.6,4.6c1.5,1.5,3.1,2.9,4.9,4.2C1106.7,353.1,1108.5,354.3,1110.2,355.5z"/>
		</g>
		<g>
			<path d="M1188.4,334.3H1165l-5.4,9.8c4.5,0,8.8,0.7,12.8,2.1c4,1.4,7.5,3.4,10.6,5.9c3,2.5,5.4,5.5,7.2,9
				c1.8,3.5,2.7,7.2,2.7,11.3c0,3.7-0.8,7.2-2.4,10.5c-1.7,3.3-3.9,6.2-6.9,8.6c-2.9,2.4-6.3,4.4-10.3,5.8
				c-3.9,1.4-8.1,2.1-12.6,2.1c-2,0-3.9-0.2-5.6-0.6c-1.7-0.4-3.1-0.9-4.3-1.6s-2.1-1.4-2.8-2.3c-0.7-0.9-1-1.8-1-2.8
				c0-1.3,0.5-2.3,1.5-2.9c1-0.6,2.2-0.9,3.5-0.9c1.5,0,2.7,0.3,3.7,0.8c1,0.6,2.1,1.2,3.1,1.8c1.1,0.7,2.3,1.3,3.6,1.8
				c1.3,0.6,3,0.8,5.1,0.8c2.4,0,4.6-0.5,6.7-1.4c2.1-0.9,3.9-2.2,5.5-3.8c1.6-1.6,2.8-3.5,3.7-5.7c0.9-2.2,1.4-4.5,1.4-7
				c0-3.4-0.8-6.4-2.5-9.1c-1.7-2.7-4.1-5-7.2-7c-3.1-1.9-6.9-3.4-11.3-4.5c-4.4-1.1-9.3-1.6-14.8-1.6l15.5-28.3h28.5L1188.4,334.3z
				"/>
		</g>
		<g>
			<path d="M1254.3,325.6c-4.3,0.4-8.5,1.5-12.4,3.4c-3.9,1.9-7.5,4.3-10.7,7.2c-3.2,2.9-5.9,6.3-8.1,10c-2.2,3.7-3.8,7.7-4.8,11.8
				c1.2-0.8,2.4-1.6,3.6-2.3c1.2-0.7,2.6-1.3,4-1.8c1.4-0.5,2.9-0.9,4.5-1.2c1.6-0.3,3.3-0.5,5.1-0.5c2.9,0,5.6,0.6,8.2,1.7
				c2.5,1.1,4.8,2.7,6.7,4.6c1.9,2,3.4,4.3,4.5,6.9c1.1,2.6,1.7,5.5,1.7,8.5c0,3.5-0.7,6.9-2.1,10c-1.4,3.1-3.2,5.8-5.6,8.2
				c-2.3,2.3-5.1,4.2-8.2,5.5c-3.1,1.4-6.4,2-10,2c-3.8,0-7.2-0.8-10.4-2.3c-3.2-1.5-5.9-3.6-8.1-6.2c-2.3-2.6-4-5.7-5.3-9.2
				c-1.3-3.5-1.9-7.2-1.9-11.2c0-4.2,0.5-8.3,1.6-12.3c1.1-4,2.6-7.7,4.6-11.1c2-3.5,4.4-6.6,7.3-9.5c2.9-2.9,6.1-5.4,9.8-7.4
				c3.7-2.1,7.7-3.7,12-4.8c4.3-1.1,9-1.7,13.9-1.7V325.6z M1218.2,361.1c-0.3,1.6-0.5,3.3-0.6,5c-0.2,1.7-0.2,3.3-0.2,4.9
				c0,3.3,0.3,6.4,0.9,9.4c0.6,3,1.5,5.6,2.8,7.9c1.2,2.3,2.8,4.1,4.7,5.4c1.9,1.4,4.1,2,6.7,2c1.8,0,3.5-0.4,5.1-1.4
				c1.6-0.9,3-2.1,4.1-3.7c1.2-1.5,2.1-3.3,2.8-5.4c0.7-2.1,1-4.3,1-6.7c0-3-0.4-5.9-1.2-8.5c-0.8-2.7-1.9-5-3.3-7
				c-1.4-2-3-3.5-4.9-4.7c-1.9-1.1-3.8-1.7-5.9-1.7c-0.9,0-1.8,0.1-2.9,0.3c-1,0.2-2.1,0.5-3.1,0.9c-1.1,0.4-2.1,0.8-3.1,1.4
				C1219.9,359.9,1219,360.5,1218.2,361.1z"/>
		</g>
		<g>
			<path d="M149.8,453h24c7.4,0,13.8,0.7,19.2,2.1c5.3,1.4,9.8,3.6,13.4,6.6c4.1,3.5,7.2,7.5,9.2,12c2.1,4.5,3.1,9.5,3.1,14.8
				c0,5.1-0.9,9.9-2.8,14.3c-1.9,4.5-4.6,8.4-8.1,11.7c-3.5,3.3-7.9,6-13.1,7.9c-5.2,1.9-11.2,2.9-17.9,2.9h-27V453z M162,520.1
				h12.9c4.1,0,7.9-0.7,11.5-2c3.6-1.4,6.7-3.3,9.4-6c2.7-2.6,4.8-5.9,6.3-9.8c1.5-3.9,2.3-8.4,2.3-13.5c0-4.4-0.7-8.5-2.2-12.2
				c-1.5-3.7-3.5-6.9-6.1-9.6c-2.6-2.7-5.7-4.8-9.3-6.3c-3.6-1.5-7.6-2.3-11.9-2.3h-13V520.1z"/>
		</g>
		<g>
			<path d="M237.1,441c0.9,0,1.7,0.1,2.5,0.4c0.8,0.3,1.5,0.7,2,1.2c0.6,0.5,1,1.1,1.4,1.8c0.3,0.7,0.5,1.4,0.5,2.2
				c0,0.8-0.2,1.5-0.5,2.2c-0.3,0.7-0.8,1.3-1.4,1.8c-0.6,0.5-1.2,0.9-2,1.2c-0.8,0.3-1.6,0.4-2.5,0.4c-0.9,0-1.7-0.1-2.4-0.4
				c-0.8-0.3-1.4-0.7-2-1.2c-0.6-0.5-1-1.1-1.4-1.8c-0.3-0.7-0.5-1.4-0.5-2.2c0-0.8,0.2-1.5,0.5-2.2c0.3-0.7,0.8-1.3,1.4-1.8
				c0.6-0.5,1.2-0.9,2-1.2C235.4,441.2,236.2,441,237.1,441z M231.7,471.6l7.8-3.2h3.2v56.9h-11V471.6z"/>
		</g>
		<g>
			<path d="M256.2,469.6h11v10.5c1.1-1.6,2.2-3,3.5-4.5c1.2-1.4,2.5-2.7,3.9-3.7c1.4-1.1,2.7-1.9,4.2-2.5c1.4-0.6,2.9-0.9,4.4-0.9
				c1.2,0,2.3,0.2,3.4,0.5c1,0.4,1.9,0.8,2.7,1.5c0.8,0.6,1.4,1.3,1.8,2.1c0.4,0.8,0.7,1.7,0.7,2.6c0,1.8-0.6,3.2-1.7,4.1
				c-1.1,0.9-2.7,1.4-4.7,1.4c-1.2,0-2.2-0.1-3-0.4c-0.7-0.3-1.4-0.6-2-0.9c-0.6-0.3-1.2-0.6-1.8-0.9c-0.6-0.3-1.4-0.4-2.3-0.4
				c-0.7,0-1.5,0.2-2.2,0.6c-0.7,0.4-1.5,1-2.2,1.8c-0.7,0.8-1.5,1.7-2.3,2.8c-0.8,1.1-1.5,2.2-2.3,3.5v38.6h-11V469.6z"/>
		</g>
		<g>
			<path d="M323.6,526.5c-3.8,0-7.3-0.7-10.6-2.1c-3.3-1.4-6.2-3.3-8.7-5.8c-2.5-2.4-4.4-5.3-5.9-8.6c-1.4-3.3-2.2-6.8-2.2-10.5
				c0-4.5,0.7-8.6,2-12.4c1.3-3.8,3.2-7.1,5.6-9.9c2.4-2.8,5.3-4.9,8.6-6.5c3.4-1.6,7.1-2.3,11.2-2.3c3.7,0,7,0.6,10.1,1.9
				c3,1.3,5.7,3,7.8,5.2c2.2,2.2,3.9,4.7,5.1,7.5c1.2,2.8,1.8,5.8,1.8,8.9H307c0,3.7,0.5,7.2,1.5,10.4c1,3.2,2.3,6,4.1,8.3
				c1.7,2.3,3.8,4.1,6.2,5.5c2.4,1.3,5.1,2,7.9,2c2.4,0,4.7-0.4,7-1.2c2.2-0.8,4.2-1.8,6-3.1c1.8-1.3,3.3-2.7,4.6-4.4
				c1.3-1.6,2.2-3.3,2.7-5.1l3.2,1.4c-0.8,2.9-2.1,5.6-3.9,8.1c-1.8,2.5-3.9,4.7-6.2,6.6c-2.4,1.9-5,3.3-7.8,4.4
				C329.3,526,326.5,526.5,323.6,526.5z M334.7,487.5c0-2.1-0.4-4.1-1.1-5.9c-0.7-1.8-1.8-3.4-3.1-4.7c-1.3-1.3-2.8-2.4-4.6-3.1
				c-1.7-0.8-3.6-1.1-5.6-1.1c-1.7,0-3.3,0.4-4.8,1.1c-1.5,0.8-2.9,1.8-4.1,3.1c-1.2,1.3-2.2,2.9-3,4.7c-0.8,1.8-1.3,3.8-1.4,5.9
				L334.7,487.5z"/>
		</g>
		<g>
			<path d="M384.1,526.5c-3.6,0-7.1-0.7-10.3-2.2c-3.2-1.4-6-3.4-8.4-5.9c-2.4-2.5-4.2-5.4-5.6-8.8c-1.4-3.4-2.1-6.9-2.1-10.8
				c0-4.2,0.8-8.2,2.3-11.9c1.5-3.7,3.6-6.9,6.2-9.7c2.6-2.8,5.7-5,9.2-6.5c3.5-1.6,7.3-2.4,11.3-2.4c3.1,0,6,0.3,8.6,1
				c2.6,0.7,4.9,1.6,6.8,2.8c1.9,1.2,3.4,2.6,4.5,4.2c1.1,1.6,1.6,3.4,1.6,5.2c0,0.8-0.2,1.6-0.6,2.4c-0.4,0.7-1,1.4-1.7,1.9
				c-0.7,0.6-1.5,1-2.4,1.3c-0.9,0.3-1.8,0.5-2.7,0.5c-1,0-1.9-0.2-2.7-0.5c-0.8-0.4-1.5-0.8-2.1-1.4s-1-1.2-1.3-1.9
				c-0.3-0.7-0.4-1.5-0.4-2.2c0-1.3-0.1-2.5-0.4-3.6c-0.3-1.1-0.8-2.1-1.5-2.9c-0.7-0.8-1.6-1.5-2.9-1.9c-1.2-0.5-2.8-0.7-4.6-0.7
				c-2.5,0-4.8,0.5-6.8,1.5c-2,1-3.7,2.4-5.1,4.1c-1.4,1.7-2.4,3.8-3.2,6.1s-1.1,4.8-1.1,7.5c0,3.6,0.5,6.9,1.4,10.1
				c0.9,3.2,2.3,6,3.9,8.4c1.7,2.4,3.7,4.3,6.1,5.7c2.4,1.4,5.1,2.1,8,2.1c2.6,0,4.8-0.4,6.8-1.2c1.9-0.8,3.6-1.9,5-3.3
				c1.4-1.4,2.6-3,3.6-4.8c1-1.8,1.9-3.8,2.7-5.8l3.3,1.4c-0.9,3.5-2.2,6.6-3.8,9.4c-1.6,2.8-3.5,5.1-5.6,7
				c-2.2,1.9-4.6,3.4-7.3,4.4C390.3,526,387.3,526.5,384.1,526.5z"/>
		</g>
		<g>
			<path d="M443.8,526.5c-3.6,0-7.1-0.7-10.3-2.2c-3.2-1.4-6-3.4-8.4-5.9c-2.4-2.5-4.2-5.4-5.6-8.8c-1.4-3.4-2.1-6.9-2.1-10.8
				c0-4.2,0.8-8.2,2.3-11.9c1.5-3.7,3.6-6.9,6.2-9.7c2.6-2.8,5.7-5,9.2-6.5c3.5-1.6,7.3-2.4,11.3-2.4c3.1,0,6,0.3,8.6,1
				c2.6,0.7,4.9,1.6,6.8,2.8c1.9,1.2,3.4,2.6,4.5,4.2c1.1,1.6,1.6,3.4,1.6,5.2c0,0.8-0.2,1.6-0.6,2.4c-0.4,0.7-1,1.4-1.7,1.9
				c-0.7,0.6-1.5,1-2.4,1.3c-0.9,0.3-1.8,0.5-2.7,0.5c-1,0-1.9-0.2-2.7-0.5c-0.8-0.4-1.5-0.8-2.1-1.4s-1-1.2-1.3-1.9
				c-0.3-0.7-0.4-1.5-0.4-2.2c0-1.3-0.1-2.5-0.4-3.6c-0.3-1.1-0.8-2.1-1.5-2.9c-0.7-0.8-1.6-1.5-2.9-1.9c-1.2-0.5-2.8-0.7-4.6-0.7
				c-2.5,0-4.8,0.5-6.8,1.5c-2,1-3.7,2.4-5.1,4.1c-1.4,1.7-2.4,3.8-3.2,6.1s-1.1,4.8-1.1,7.5c0,3.6,0.5,6.9,1.4,10.1
				c0.9,3.2,2.3,6,3.9,8.4c1.7,2.4,3.7,4.3,6.1,5.7c2.4,1.4,5.1,2.1,8,2.1c2.6,0,4.8-0.4,6.8-1.2c1.9-0.8,3.6-1.9,5-3.3
				c1.4-1.4,2.6-3,3.6-4.8c1-1.8,1.9-3.8,2.7-5.8l3.3,1.4c-0.9,3.5-2.2,6.6-3.8,9.4c-1.6,2.8-3.5,5.1-5.6,7
				c-2.2,1.9-4.6,3.4-7.3,4.4C449.9,526,447,526.5,443.8,526.5z"/>
		</g>
		<g>
			<path d="M485.7,441c0.9,0,1.7,0.1,2.5,0.4c0.8,0.3,1.5,0.7,2,1.2c0.6,0.5,1,1.1,1.4,1.8c0.3,0.7,0.5,1.4,0.5,2.2
				c0,0.8-0.2,1.5-0.5,2.2c-0.3,0.7-0.8,1.3-1.4,1.8c-0.6,0.5-1.2,0.9-2,1.2c-0.8,0.3-1.6,0.4-2.5,0.4c-0.9,0-1.7-0.1-2.4-0.4
				c-0.8-0.3-1.4-0.7-2-1.2c-0.6-0.5-1-1.1-1.4-1.8c-0.3-0.7-0.5-1.4-0.5-2.2c0-0.8,0.2-1.5,0.5-2.2c0.3-0.7,0.8-1.3,1.4-1.8
				c0.6-0.5,1.2-0.9,2-1.2C484,441.2,484.8,441,485.7,441z M480.3,471.6l7.8-3.2h3.2v56.9h-11V471.6z"/>
		</g>
		<g>
			<path d="M532,526.5c-4.3,0-8.2-0.7-11.8-2.2c-3.6-1.5-6.7-3.5-9.3-6.1c-2.6-2.6-4.7-5.6-6.1-9c-1.5-3.4-2.2-7.1-2.2-11
				c0-4.1,0.7-8,2.2-11.6c1.5-3.6,3.5-6.8,6.1-9.5c2.6-2.7,5.7-4.8,9.3-6.4c3.6-1.6,7.6-2.3,11.8-2.3c4.3,0,8.2,0.7,11.8,2.1
				c3.6,1.4,6.7,3.4,9.3,5.8c2.6,2.5,4.7,5.4,6.2,8.7c1.5,3.3,2.2,6.9,2.2,10.7c0,4.2-0.7,8.2-2.2,11.9c-1.5,3.7-3.5,7-6.2,9.8
				c-2.6,2.8-5.7,5-9.3,6.6C540.2,525.7,536.2,526.5,532,526.5z M534.1,522.4c2.2,0,4.2-0.6,6-1.7c1.8-1.1,3.4-2.6,4.7-4.5
				c1.3-1.9,2.4-4.1,3.1-6.6c0.7-2.5,1.1-5.2,1.1-8c0-4.1-0.3-7.8-1-11.3c-0.7-3.5-1.8-6.6-3.4-9.2c-1.6-2.6-3.6-4.7-6.1-6.2
				c-2.5-1.5-5.6-2.3-9.2-2.3c-1.9,0-3.7,0.5-5.4,1.6c-1.7,1.1-3.3,2.5-4.6,4.4c-1.3,1.9-2.4,4.1-3.2,6.5c-0.8,2.5-1.2,5.1-1.2,7.9
				c0,4.1,0.4,7.9,1.3,11.4c0.9,3.6,2.1,6.7,3.7,9.3c1.6,2.6,3.6,4.7,6,6.3C528.3,521.7,531,522.4,534.1,522.4z"/>
		</g>
		<g>
			<path d="M572.1,469.6h11.1v10.2c3.4-3.8,6.9-6.6,10.5-8.5c3.6-1.9,7.3-2.8,11.1-2.8c1.9,0,3.8,0.4,5.5,1.3
				c1.7,0.9,3.2,2.1,4.5,3.6c1.3,1.5,2.3,3.3,3,5.4c0.7,2.1,1.1,4.3,1.1,6.6v40h-11.1v-38.2c0-3.7-0.8-6.5-2.5-8.4
				c-1.7-1.9-3.8-2.9-6.4-2.9c-1.2,0-2.4,0.2-3.7,0.6c-1.3,0.4-2.6,0.9-4,1.6c-1.4,0.7-2.7,1.6-4.1,2.5c-1.4,1-2.6,2.1-3.9,3.3v41.3
				h-11.1V469.6z"/>
		</g>
		<g>
			<path d="M637,475.4c0.8,0,1.6,0.2,2.3,0.5c0.7,0.3,1.3,0.7,1.9,1.2c0.5,0.5,1,1.1,1.3,1.8c0.3,0.7,0.5,1.4,0.5,2.2
				c0,0.8-0.2,1.5-0.5,2.3c-0.3,0.7-0.7,1.3-1.3,1.8c-0.5,0.5-1.2,0.9-1.9,1.2c-0.7,0.3-1.5,0.4-2.3,0.4s-1.6-0.1-2.3-0.4
				c-0.7-0.3-1.4-0.7-1.9-1.2c-0.5-0.5-1-1.1-1.3-1.8c-0.3-0.7-0.5-1.5-0.5-2.3c0-0.8,0.2-1.5,0.5-2.2c0.3-0.7,0.7-1.3,1.3-1.8
				c0.5-0.5,1.2-0.9,1.9-1.2S636.2,475.4,637,475.4z M637,515.6c0.8,0,1.6,0.1,2.3,0.4c0.7,0.3,1.3,0.7,1.9,1.2
				c0.5,0.5,1,1.1,1.3,1.8c0.3,0.7,0.5,1.4,0.5,2.2c0,0.8-0.2,1.5-0.5,2.3c-0.3,0.7-0.7,1.3-1.3,1.8c-0.5,0.5-1.2,0.9-1.9,1.2
				c-0.7,0.3-1.5,0.4-2.3,0.4s-1.6-0.1-2.3-0.4c-0.7-0.3-1.4-0.7-1.9-1.2c-0.5-0.5-1-1.1-1.3-1.8c-0.3-0.7-0.5-1.5-0.5-2.3
				c0-0.8,0.2-1.5,0.5-2.2c0.3-0.7,0.7-1.3,1.3-1.8c0.5-0.5,1.2-0.9,1.9-1.2C635.4,515.7,636.2,515.6,637,515.6z"/>
		</g>
		<g>
			<path d="M700.2,489.4c0,5.1,0.8,9.6,2.3,13.7c1.5,4,3.6,7.4,6.3,10.2c2.7,2.8,5.8,4.9,9.5,6.4c3.7,1.5,7.6,2.2,11.9,2.2
				c2.5,0,5-0.5,7.3-1.5c2.4-1,4.5-2.3,6.6-3.8c2-1.6,3.8-3.4,5.4-5.3c1.6-2,2.9-4,3.9-6.1l5.1,3.3c-1.5,2.4-3.2,4.8-5.3,7
				c-2,2.3-4.4,4.2-7,5.9c-2.7,1.7-5.7,3.1-9,4.1c-3.4,1-7.1,1.6-11.3,1.6c-4,0-7.7-0.5-11.3-1.4s-6.8-2.2-9.7-3.8
				c-3-1.6-5.6-3.6-7.9-5.9c-2.3-2.3-4.3-4.9-5.9-7.7c-1.6-2.8-2.8-5.8-3.7-9c-0.9-3.2-1.3-6.5-1.3-9.9c0-3.4,0.4-6.7,1.3-9.9
				c0.9-3.2,2.1-6.2,3.8-9c1.6-2.8,3.7-5.4,6.1-7.8c2.4-2.4,5.1-4.4,8.1-6.1c3-1.7,6.3-3,9.8-3.9c3.6-0.9,7.4-1.4,11.4-1.4
				c3.8,0,7.4,0.5,10.6,1.6c3.2,1,6.2,2.4,8.9,4.1c2.7,1.7,5.1,3.7,7.1,5.9c2.1,2.3,3.9,4.6,5.3,7l-5.2,3.5
				c-3-5.9-6.4-10.1-10.2-12.9c-3.7-2.7-8-4.1-12.9-4.1c-4.2,0-8.1,0.8-11.7,2.3c-3.6,1.5-6.8,3.7-9.5,6.5
				c-2.7,2.8-4.8,6.3-6.4,10.3S700.2,484.3,700.2,489.4z"/>
		</g>
		<g>
			<path d="M812,525.3h-11.1v-7.6c-1.3,1-2.6,2-3.9,3.1c-1.3,1-2.6,2-4.1,2.9c-1.5,0.9-3.1,1.6-4.9,2.1c-1.8,0.5-3.9,0.8-6.2,0.8
				c-2.2,0-4.2-0.4-5.9-1.1c-1.8-0.7-3.3-1.7-4.5-2.9c-1.2-1.2-2.2-2.7-2.9-4.4c-0.7-1.7-1-3.5-1-5.5c0-2.4,0.5-4.5,1.4-6.5
				c1-1.9,2.3-3.6,3.9-5.2c1.6-1.5,3.6-2.9,5.8-4.1c2.2-1.2,4.5-2.2,7-3.2c2.5-0.9,5-1.8,7.6-2.5c2.6-0.7,5.2-1.4,7.7-2v-3.5
				c0-2.5-0.3-4.7-0.8-6.4c-0.5-1.7-1.2-3.2-2.2-4.2c-0.9-1.1-2.1-1.8-3.4-2.3c-1.3-0.5-2.8-0.7-4.5-0.7c-1.9,0-3.4,0.2-4.6,0.7
				c-1.2,0.5-2.1,1.1-2.8,1.9c-0.7,0.8-1.1,1.7-1.4,2.7c-0.2,1-0.4,2.1-0.4,3.1c0,1-0.1,1.9-0.2,2.8c-0.2,0.9-0.4,1.7-0.9,2.4
				c-0.4,0.7-1,1.2-1.7,1.6c-0.7,0.4-1.6,0.6-2.7,0.6c-0.9,0-1.7-0.2-2.4-0.5c-0.7-0.3-1.3-0.8-1.8-1.4c-0.5-0.6-0.9-1.3-1.2-2.1
				c-0.3-0.8-0.4-1.7-0.4-2.6c0-1.8,0.6-3.5,1.8-5.1c1.2-1.6,2.8-3,4.9-4.1c2-1.2,4.4-2.1,7.2-2.8c2.7-0.7,5.6-1,8.6-1
				c3.7,0,6.8,0.4,9.3,1.1c2.5,0.7,4.6,1.7,6.1,3c1.6,1.3,2.7,2.8,3.4,4.7c0.7,1.8,1,3.9,1,6.1V525.3z M800.9,492.8
				c-1.6,0.5-3.2,1.1-5,1.8c-1.7,0.7-3.4,1.4-5,2.2c-1.6,0.8-3.2,1.7-4.7,2.6c-1.5,1-2.8,2-3.9,3c-1.1,1.1-2,2.2-2.7,3.4
				c-0.7,1.2-1,2.5-1,3.8c0,1.4,0.3,2.6,0.8,3.9c0.5,1.2,1.2,2.3,2,3.2c0.8,0.9,1.8,1.6,2.9,2.2c1.1,0.5,2.2,0.8,3.4,0.8
				c1.2,0,2.4-0.2,3.6-0.5c1.1-0.3,2.2-0.8,3.3-1.3c1.1-0.6,2.1-1.2,3.2-1.9c1.1-0.7,2.1-1.5,3.2-2.4V492.8z"/>
		</g>
		<g>
			<path d="M838.4,525.3h-11.1v-81.2l7.9-3.2h3.2V525.3z"/>
		</g>
		<g>
			<path d="M863.5,525.3h-11.1v-81.2l7.9-3.2h3.2V525.3z"/>
		</g>
		<g>
			<path d="M901.7,526.5c-3.8,0-7.3-0.7-10.6-2.1c-3.3-1.4-6.2-3.3-8.7-5.8c-2.5-2.4-4.4-5.3-5.9-8.6c-1.4-3.3-2.2-6.8-2.2-10.5
				c0-4.5,0.7-8.6,2-12.4c1.3-3.8,3.2-7.1,5.6-9.9c2.4-2.8,5.3-4.9,8.6-6.5c3.4-1.6,7.1-2.3,11.2-2.3c3.7,0,7,0.6,10.1,1.9
				c3,1.3,5.7,3,7.8,5.2c2.2,2.2,3.9,4.7,5.1,7.5c1.2,2.8,1.8,5.8,1.8,8.9h-41.6c0,3.7,0.5,7.2,1.5,10.4c1,3.2,2.3,6,4.1,8.3
				c1.7,2.3,3.8,4.1,6.2,5.5c2.4,1.3,5.1,2,7.9,2c2.4,0,4.7-0.4,7-1.2c2.2-0.8,4.2-1.8,6-3.1c1.8-1.3,3.3-2.7,4.6-4.4
				c1.3-1.6,2.2-3.3,2.7-5.1l3.2,1.4c-0.8,2.9-2.1,5.6-3.9,8.1c-1.8,2.5-3.9,4.7-6.2,6.6c-2.4,1.9-5,3.3-7.8,4.4
				C907.5,526,904.6,526.5,901.7,526.5z M912.8,487.5c0-2.1-0.4-4.1-1.1-5.9c-0.7-1.8-1.8-3.4-3.1-4.7c-1.3-1.3-2.8-2.4-4.6-3.1
				c-1.7-0.8-3.6-1.1-5.6-1.1c-1.7,0-3.3,0.4-4.8,1.1c-1.5,0.8-2.9,1.8-4.1,3.1c-1.2,1.3-2.2,2.9-3,4.7c-0.8,1.8-1.3,3.8-1.4,5.9
				L912.8,487.5z"/>
		</g>
		<g>
			<path d="M1018.3,454.9l-26.4,72.1h-7l23.8-65.1h-38.1l4.1-8.9h43.6V454.9z"/>
		</g>
		<g>
			<path d="M1055.1,527.1c-4,0-7.7-0.9-10.9-2.8c-3.3-1.9-6.1-4.5-8.4-7.9c-2.3-3.4-4.1-7.4-5.4-12.1c-1.3-4.7-1.9-9.8-1.9-15.4
				c0-5.1,0.6-10,1.9-14.5c1.3-4.5,3.1-8.5,5.4-11.9s5.1-6.1,8.4-8c3.3-2,6.9-3,10.9-3c4,0,7.7,1,10.9,3c3.3,2,6.1,4.7,8.4,8
				s4.1,7.4,5.4,11.9c1.3,4.5,1.9,9.4,1.9,14.5c0,5.6-0.6,10.8-1.9,15.4c-1.3,4.7-3.1,8.7-5.4,12.1c-2.3,3.4-5.1,6-8.4,7.9
				C1062.8,526.1,1059.2,527.1,1055.1,527.1z M1055.1,523.4c1.6,0,3.1-0.4,4.5-1.3c1.4-0.9,2.6-2.1,3.7-3.6c1.1-1.6,2-3.4,2.8-5.6
				c0.8-2.1,1.5-4.5,2-7.1c0.5-2.6,0.9-5.3,1.2-8.2s0.4-5.9,0.4-8.9c0-4.6-0.3-8.9-0.9-13c-0.6-4.1-1.5-7.7-2.7-10.8
				c-1.2-3.1-2.7-5.5-4.5-7.3c-1.8-1.8-4-2.7-6.4-2.7c-2.5,0-4.6,0.9-6.4,2.7c-1.8,1.8-3.3,4.3-4.5,7.3c-1.2,3.1-2.1,6.7-2.7,10.8
				c-0.6,4.1-0.9,8.4-0.9,13c0,3,0.1,6,0.4,8.9s0.7,5.6,1.2,8.2c0.5,2.6,1.2,4.9,2,7.1c0.8,2.1,1.7,4,2.8,5.6
				c1.1,1.6,2.3,2.8,3.6,3.6C1052,523,1053.5,523.4,1055.1,523.4z"/>
		</g>
		<g>
			<path d="M1101.2,478.4l5.4-25.3h5.6l-5.5,25.3h18.1l5.5-25.3h5.4l-5.3,25.3h9.5v4.1h-10.3l-3.8,18h14.1v4.1h-15l-5.1,23.6h-5.5
				l5.1-23.6h-18.1l-5.1,23.6h-5.5l5.2-23.5h-9.5v-4.2h10.2l3.8-18h-14v-4.1H1101.2z M1102,500.4h18.1l3.8-18h-18.1L1102,500.4z"/>
		</g>
		<g>
			<path d="M1178,525.1c4.1-0.4,8-1.5,11.9-3.3c3.8-1.8,7.4-4.1,10.5-6.9c3.2-2.8,5.9-6.1,8.2-9.7c2.3-3.7,3.9-7.5,4.8-11.6
				c-1.2,0.7-2.4,1.4-3.6,2.1c-1.2,0.7-2.5,1.2-3.8,1.7c-1.4,0.5-2.8,0.9-4.3,1.2c-1.5,0.3-3.2,0.4-5,0.4c-3.2,0-6-0.6-8.5-1.9
				c-2.5-1.3-4.7-2.9-6.4-5c-1.8-2.1-3.1-4.5-4.1-7.2c-1-2.7-1.4-5.5-1.4-8.4c0-3.5,0.7-6.7,2-9.8c1.3-3.1,3.2-5.7,5.5-8
				c2.3-2.3,5-4.1,8.2-5.4c3.1-1.3,6.4-2,10-2c3.5,0,6.9,0.8,10,2.3c3.1,1.5,5.8,3.6,8.2,6.2s4.2,5.7,5.6,9.2
				c1.4,3.5,2.1,7.3,2.1,11.2c0,4.3-0.6,8.4-1.8,12.4c-1.2,4-2.8,7.7-5,11.2c-2.2,3.5-4.8,6.6-7.8,9.5s-6.4,5.3-10,7.3
				c-3.7,2-7.6,3.6-11.8,4.8c-4.2,1.1-8.6,1.7-13.1,1.7V525.1z M1214.4,489.5c0.2-1.6,0.5-3.3,0.6-5.2c0.2-1.9,0.3-3.8,0.3-5.7
				c0-3.2-0.4-6.3-1.2-9.1c-0.8-2.9-1.9-5.4-3.3-7.6c-1.4-2.2-3-3.9-4.9-5.1c-1.9-1.3-3.9-1.9-6-1.9c-2.2,0-4.1,0.5-5.7,1.5
				c-1.6,1-2.9,2.3-3.9,3.9c-1,1.6-1.8,3.4-2.3,5.5c-0.5,2-0.7,4.1-0.7,6.2c0,3.2,0.3,6.2,0.9,8.9c0.6,2.7,1.5,5,2.7,7
				c1.2,2,2.8,3.5,4.6,4.6c1.9,1.1,4.1,1.6,6.7,1.6c1,0,2.1-0.1,3.2-0.4c1.1-0.2,2.2-0.6,3.3-1c1.1-0.4,2.2-0.9,3.1-1.5
				C1212.9,490.7,1213.7,490.1,1214.4,489.5z"/>
		</g>
		<g>
			<path d="M1262,496.1v6.4h-26.6v-6.4H1262z"/>
		</g>
		<g>
			<path d="M1319,453.2c-4.3,0.4-8.5,1.5-12.4,3.4c-3.9,1.9-7.5,4.3-10.7,7.2c-3.2,2.9-5.9,6.3-8.1,10c-2.2,3.7-3.8,7.7-4.8,11.8
				c1.2-0.8,2.4-1.6,3.6-2.3c1.2-0.7,2.6-1.3,4-1.8c1.4-0.5,2.9-0.9,4.5-1.2c1.6-0.3,3.3-0.5,5.1-0.5c2.9,0,5.6,0.6,8.2,1.7
				c2.5,1.1,4.8,2.7,6.7,4.6c1.9,2,3.4,4.3,4.5,6.9c1.1,2.6,1.7,5.5,1.7,8.5c0,3.5-0.7,6.9-2.1,10c-1.4,3.1-3.2,5.8-5.6,8.2
				c-2.3,2.3-5.1,4.2-8.2,5.5c-3.1,1.4-6.4,2-10,2c-3.8,0-7.2-0.8-10.4-2.3c-3.2-1.5-5.9-3.6-8.1-6.2c-2.3-2.6-4-5.7-5.3-9.2
				c-1.3-3.5-1.9-7.2-1.9-11.2c0-4.2,0.5-8.3,1.6-12.3c1.1-4,2.6-7.7,4.6-11.1c2-3.5,4.4-6.6,7.3-9.5c2.9-2.9,6.1-5.4,9.8-7.4
				c3.7-2.1,7.7-3.7,12-4.8c4.3-1.1,9-1.7,13.9-1.7V453.2z M1282.9,488.7c-0.3,1.6-0.5,3.3-0.6,5c-0.2,1.7-0.2,3.3-0.2,4.9
				c0,3.3,0.3,6.4,0.9,9.4c0.6,3,1.5,5.6,2.8,7.9c1.2,2.3,2.8,4.1,4.7,5.4c1.9,1.4,4.1,2,6.7,2c1.8,0,3.5-0.4,5.1-1.4
				c1.6-0.9,3-2.1,4.1-3.7c1.2-1.5,2.1-3.3,2.8-5.4c0.7-2.1,1-4.3,1-6.7c0-3-0.4-5.9-1.2-8.5c-0.8-2.7-1.9-5-3.3-7
				c-1.4-2-3-3.5-4.9-4.7c-1.9-1.1-3.8-1.7-5.9-1.7c-0.9,0-1.8,0.1-2.9,0.3c-1,0.2-2.1,0.5-3.1,0.9c-1.1,0.4-2.1,0.8-3.1,1.4
				C1284.6,487.5,1283.7,488.1,1282.9,488.7z"/>
		</g>
		<g>
			<path d="M1345.2,487.7c2.7-0.3,5.2-0.9,7.5-1.9c2.3-0.9,4.2-2.1,5.9-3.6c1.6-1.5,2.9-3.2,3.8-5.2c0.9-2,1.4-4.2,1.4-6.5
				c0-1.6-0.3-3.1-0.9-4.5c-0.6-1.4-1.5-2.6-2.6-3.7s-2.5-1.9-4.1-2.4c-1.6-0.6-3.4-0.9-5.3-0.9c-1.4,0-2.8,0.2-4.3,0.7
				c-1.5,0.5-2.9,1.1-4.3,1.9c-1.4,0.8-2.6,1.8-3.8,2.9c-1.2,1.1-2.1,2.3-2.8,3.5l-2.1-0.8c0.8-2.2,1.8-4.2,3.1-6.2
				c1.3-1.9,2.8-3.6,4.6-5c1.8-1.4,3.9-2.6,6.2-3.4c2.3-0.8,4.9-1.2,7.7-1.2c2.6,0,5.1,0.4,7.4,1.2c2.3,0.8,4.3,1.9,6,3.2
				c1.7,1.4,3.1,3,4.1,4.9c1,1.9,1.5,3.9,1.5,6.1c0,1.1-0.3,2.4-0.9,3.7c-0.6,1.4-1.4,2.8-2.4,4.2c-1,1.4-2.2,2.8-3.5,4.2
				c-1.3,1.4-2.7,2.6-4.2,3.6c2.1,0.6,4,1.6,5.8,2.9c1.8,1.3,3.4,2.8,4.8,4.6c1.4,1.7,2.4,3.6,3.2,5.6c0.8,2,1.2,4,1.2,6
				c0,4.3-0.8,8-2.5,11.2c-1.7,3.2-4,5.8-6.9,8c-2.9,2.1-6.4,3.7-10.4,4.8c-4,1.1-8.3,1.6-13,1.6c-2,0-3.7-0.1-5.3-0.4
				c-1.6-0.3-2.9-0.7-4-1.2c-1.1-0.5-1.9-1.1-2.5-1.9c-0.6-0.7-0.9-1.5-0.9-2.4c0-0.8,0.2-1.4,0.6-1.9c0.4-0.5,0.9-0.9,1.5-1.2
				c0.6-0.3,1.2-0.5,1.9-0.7c0.7-0.1,1.4-0.2,2-0.2c1.3,0,2.4,0.1,3.3,0.4c0.9,0.3,1.8,0.6,2.5,1c0.7,0.4,1.4,0.8,2,1.2
				c0.6,0.4,1.3,0.8,2,1.2c0.7,0.4,1.5,0.7,2.3,1c0.8,0.3,1.9,0.4,3,0.4c2.5,0,4.8-0.4,6.7-1.2c1.9-0.8,3.5-1.9,4.9-3.3
				c1.3-1.4,2.3-3,3-4.8c0.7-1.8,1-3.7,1-5.7c0-2.5-0.5-4.8-1.4-7c-1-2.1-2.4-4-4.4-5.6c-2-1.6-4.5-2.8-7.5-3.7s-6.6-1.3-10.6-1.3
				V487.7z"/>
		</g>
		<g>
			<path d="M149.8,580.6h12.4l28.1,55.5h0.6l27.6-55.5h12.2V653h-12.2v-59.3h-0.4L188.5,653H186l-30-58.8h-0.8V653h-5.3V580.6z"/>
		</g>
		<g>
			<path d="M287.4,653h-11.1v-7.6c-1.3,1-2.6,2-3.9,3.1c-1.3,1-2.6,2-4.1,2.9c-1.5,0.9-3.1,1.6-4.9,2.1c-1.8,0.5-3.9,0.8-6.2,0.8
				c-2.2,0-4.2-0.4-5.9-1.1c-1.8-0.7-3.3-1.7-4.5-2.9c-1.2-1.2-2.2-2.7-2.9-4.4c-0.7-1.7-1-3.5-1-5.5c0-2.4,0.5-4.5,1.4-6.5
				c1-1.9,2.3-3.6,3.9-5.2c1.6-1.5,3.6-2.9,5.8-4.1c2.2-1.2,4.5-2.2,7-3.2c2.5-0.9,5-1.8,7.6-2.5c2.6-0.7,5.2-1.4,7.7-2v-3.5
				c0-2.5-0.3-4.7-0.8-6.4c-0.5-1.7-1.2-3.2-2.2-4.2c-0.9-1.1-2.1-1.8-3.4-2.3c-1.3-0.5-2.8-0.7-4.5-0.7c-1.9,0-3.4,0.2-4.6,0.7
				c-1.2,0.5-2.1,1.1-2.8,1.9c-0.7,0.8-1.1,1.7-1.4,2.7c-0.2,1-0.4,2.1-0.4,3.1c0,1-0.1,1.9-0.2,2.8c-0.2,0.9-0.4,1.7-0.9,2.4
				c-0.4,0.7-1,1.2-1.7,1.6c-0.7,0.4-1.6,0.6-2.7,0.6c-0.9,0-1.7-0.2-2.4-0.5c-0.7-0.3-1.3-0.8-1.8-1.4c-0.5-0.6-0.9-1.3-1.2-2.1
				c-0.3-0.8-0.4-1.7-0.4-2.6c0-1.8,0.6-3.5,1.8-5.1c1.2-1.6,2.8-3,4.9-4.1c2-1.2,4.4-2.1,7.2-2.8c2.7-0.7,5.6-1,8.6-1
				c3.7,0,6.8,0.4,9.3,1.1c2.5,0.7,4.6,1.7,6.1,3c1.6,1.3,2.7,2.8,3.4,4.7c0.7,1.8,1,3.9,1,6.1V653z M276.3,620.5
				c-1.6,0.5-3.2,1.1-5,1.8c-1.7,0.7-3.4,1.4-5,2.2c-1.6,0.8-3.2,1.7-4.7,2.6c-1.5,1-2.8,2-3.9,3c-1.1,1.1-2,2.2-2.7,3.4
				c-0.7,1.2-1,2.5-1,3.8c0,1.4,0.3,2.6,0.8,3.9c0.5,1.2,1.2,2.3,2,3.2c0.8,0.9,1.8,1.6,2.9,2.2c1.1,0.5,2.2,0.8,3.4,0.8
				c1.2,0,2.4-0.2,3.6-0.5c1.1-0.3,2.2-0.8,3.3-1.3c1.1-0.6,2.1-1.2,3.2-1.9c1.1-0.7,2.1-1.5,3.2-2.4V620.5z"/>
		</g>
		<g>
			<path d="M308.1,568.6c0.9,0,1.7,0.1,2.5,0.4c0.8,0.3,1.5,0.7,2,1.2c0.6,0.5,1,1.1,1.4,1.8c0.3,0.7,0.5,1.4,0.5,2.2
				c0,0.8-0.2,1.5-0.5,2.2c-0.3,0.7-0.8,1.3-1.4,1.8c-0.6,0.5-1.2,0.9-2,1.2c-0.8,0.3-1.6,0.4-2.5,0.4c-0.9,0-1.7-0.1-2.4-0.4
				c-0.8-0.3-1.4-0.7-2-1.2c-0.6-0.5-1-1.1-1.4-1.8c-0.3-0.7-0.5-1.4-0.5-2.2c0-0.8,0.2-1.5,0.5-2.2c0.3-0.7,0.8-1.3,1.4-1.8
				c0.6-0.5,1.2-0.9,2-1.2C306.5,568.8,307.3,568.6,308.1,568.6z M302.7,599.2l7.8-3.2h3.2V653h-11V599.2z"/>
		</g>
		<g>
			<path d="M338.8,653h-11.1v-81.2l7.9-3.2h3.2V653z"/>
		</g>
		<g>
			<path d="M357.8,603.1c0.8,0,1.6,0.2,2.3,0.5c0.7,0.3,1.3,0.7,1.9,1.2c0.5,0.5,1,1.1,1.3,1.8c0.3,0.7,0.5,1.4,0.5,2.2
				c0,0.8-0.2,1.5-0.5,2.3c-0.3,0.7-0.7,1.3-1.3,1.8c-0.5,0.5-1.2,0.9-1.9,1.2c-0.7,0.3-1.5,0.4-2.3,0.4c-0.8,0-1.6-0.1-2.3-0.4
				c-0.7-0.3-1.4-0.7-1.9-1.2c-0.5-0.5-1-1.1-1.3-1.8c-0.3-0.7-0.5-1.5-0.5-2.3c0-0.8,0.2-1.5,0.5-2.2c0.3-0.7,0.7-1.3,1.3-1.8
				c0.5-0.5,1.2-0.9,1.9-1.2S357,603.1,357.8,603.1z M357.8,643.2c0.8,0,1.6,0.1,2.3,0.4c0.7,0.3,1.3,0.7,1.9,1.2
				c0.5,0.5,1,1.1,1.3,1.8c0.3,0.7,0.5,1.4,0.5,2.2c0,0.8-0.2,1.5-0.5,2.3c-0.3,0.7-0.7,1.3-1.3,1.8c-0.5,0.5-1.2,0.9-1.9,1.2
				c-0.7,0.3-1.5,0.4-2.3,0.4c-0.8,0-1.6-0.1-2.3-0.4c-0.7-0.3-1.4-0.7-1.9-1.2c-0.5-0.5-1-1.1-1.3-1.8c-0.3-0.7-0.5-1.5-0.5-2.3
				c0-0.8,0.2-1.5,0.5-2.2c0.3-0.7,0.7-1.3,1.3-1.8c0.5-0.5,1.2-0.9,1.9-1.2C356.2,643.4,357,643.2,357.8,643.2z"/>
		</g>
		<g>
			<path d="M434.5,654.2c-4.3,0-8.2-0.7-11.8-2.2c-3.6-1.5-6.7-3.5-9.3-6.1c-2.6-2.6-4.7-5.6-6.1-9c-1.5-3.4-2.2-7.1-2.2-11
				c0-4.1,0.7-8,2.2-11.6c1.5-3.6,3.5-6.8,6.1-9.5c2.6-2.7,5.7-4.8,9.3-6.4c3.6-1.6,7.6-2.3,11.8-2.3c4.3,0,8.2,0.7,11.8,2.1
				c3.6,1.4,6.7,3.4,9.3,5.8c2.6,2.5,4.7,5.4,6.2,8.7c1.5,3.3,2.2,6.9,2.2,10.7c0,4.2-0.7,8.2-2.2,11.9c-1.5,3.7-3.5,7-6.2,9.8
				c-2.6,2.8-5.7,5-9.3,6.6S438.8,654.2,434.5,654.2z M436.6,650.1c2.2,0,4.2-0.6,6-1.7c1.8-1.1,3.4-2.6,4.7-4.5
				c1.3-1.9,2.4-4.1,3.1-6.6c0.7-2.5,1.1-5.2,1.1-8c0-4.1-0.3-7.8-1-11.3c-0.7-3.5-1.8-6.6-3.4-9.2c-1.6-2.6-3.6-4.7-6.1-6.2
				c-2.5-1.5-5.6-2.3-9.2-2.3c-1.9,0-3.7,0.5-5.4,1.6c-1.7,1.1-3.3,2.5-4.6,4.4c-1.3,1.9-2.4,4.1-3.2,6.5c-0.8,2.5-1.2,5.1-1.2,7.9
				c0,4.1,0.4,7.9,1.3,11.4c0.9,3.6,2.1,6.7,3.7,9.3c1.6,2.6,3.6,4.7,6,6.3C430.9,649.3,433.6,650.1,436.6,650.1z"/>
		</g>
		<g>
			<path d="M486.2,653h-11.1v-81.2l7.9-3.2h3.2V653z"/>
		</g>
		<g>
			<path d="M555,600.1v4.6h-10.6c1.1,1.5,2,3.2,2.6,5.1c0.7,1.9,1,3.8,1,5.6c0,2.9-0.6,5.5-1.9,7.9c-1.3,2.4-3.1,4.4-5.3,6.1
				c-2.3,1.7-5,3-8.2,4c-3.2,0.9-6.7,1.4-10.5,1.4c-1.4,0-2.8-0.1-4.3-0.4c-1.5-0.2-2.7-0.5-3.8-0.9c-1.1,0.9-2,1.9-2.7,3
				s-1.1,2.3-1.1,3.5c0,1.1,0.6,2,1.8,2.7c1.2,0.7,3,1.1,5.2,1.1l20.7,0.9c3.3,0.1,6,0.5,8.2,1.2c2.2,0.6,4,1.5,5.3,2.5
				c1.3,1.1,2.2,2.3,2.8,3.8c0.5,1.5,0.8,3.1,0.8,4.9c0,3.3-0.8,6.2-2.3,8.8c-1.5,2.6-3.7,4.9-6.5,6.7c-2.9,1.9-6.3,3.3-10.4,4.3
				c-4.1,1-8.7,1.5-13.9,1.5c-9.2,0-16.1-1-20.6-3.1c-4.6-2.1-6.8-4.8-6.8-8.3c0-1.5,0.4-3,1.1-4.4c0.8-1.4,1.7-2.8,2.9-4.1
				s2.5-2.5,4-3.7c1.5-1.2,2.9-2.3,4.3-3.5c-1-0.3-2-0.7-2.9-1.1c-0.9-0.4-1.6-1-2.3-1.5c-0.6-0.6-1.2-1.2-1.5-1.9
				c-0.4-0.7-0.6-1.4-0.6-2.2c0-1.1,0.3-2.3,0.9-3.5c0.6-1.2,1.4-2.3,2.4-3.5c1-1.1,2.2-2.1,3.6-3c1.4-0.9,2.8-1.7,4.4-2.3
				c-3.8-1.6-6.7-3.8-8.8-6.7c-2.1-2.9-3.2-6.1-3.2-9.8c0-2.7,0.6-5.3,1.9-7.8c1.3-2.4,3-4.6,5.2-6.4c2.2-1.8,4.8-3.3,7.8-4.3
				c3-1.1,6.2-1.6,9.6-1.6c1.7,0,3.3,0.1,4.9,0.3c1.6,0.2,3.1,0.5,4.5,0.9c1.4,0.4,2.6,0.8,3.7,1.3c1.1,0.5,1.9,1,2.5,1.6H555z
				 M510.3,652.5c-0.8,0.6-1.6,1.3-2.2,2.1c-0.6,0.8-1.2,1.6-1.6,2.4c-0.4,0.8-0.8,1.7-1,2.5c-0.2,0.8-0.3,1.7-0.3,2.4
				c0,1.2,0.4,2.4,1.3,3.6c0.9,1.1,2.2,2.1,3.9,3c1.7,0.9,3.9,1.6,6.6,2.1c2.6,0.5,5.7,0.8,9.2,0.8c3.7,0,7-0.3,10-0.9
				c2.9-0.6,5.4-1.4,7.5-2.3c2-1,3.6-2.1,4.7-3.2c1.1-1.2,1.6-2.4,1.6-3.6c0-2.5-1.2-4.3-3.7-5.5c-2.5-1.1-5.9-1.7-10.2-1.7
				c-2.7,0-5.4-0.1-8.1-0.2c-2.7-0.1-5.3-0.3-7.7-0.4c-2.4-0.2-4.4-0.4-6.2-0.5C512.3,652.8,511,652.7,510.3,652.5z M524.1,632
				c1.6,0,3.1-0.4,4.5-1.1c1.5-0.7,2.7-1.7,3.8-2.9c1.1-1.2,2-2.7,2.6-4.4c0.7-1.7,1-3.4,1-5.3c0-2.7-0.4-5.3-1.1-7.6
				c-0.7-2.3-1.8-4.4-3-6.1c-1.3-1.7-2.8-3.1-4.5-4.1c-1.7-1-3.5-1.5-5.4-1.5c-1.9,0-3.5,0.4-4.9,1.2c-1.4,0.8-2.5,1.8-3.4,3.2
				c-0.9,1.4-1.5,2.9-1.9,4.8c-0.4,1.8-0.6,3.8-0.6,5.9c0,2.5,0.3,4.9,0.9,7.1c0.6,2.2,1.5,4.1,2.6,5.7c1.1,1.6,2.5,2.9,4.1,3.8
				C520.4,631.5,522.2,632,524.1,632z"/>
		</g>
		<g>
			<path d="M606.5,653h-11.1v-7.6c-1.3,1-2.6,2-3.9,3.1c-1.3,1-2.6,2-4.1,2.9c-1.5,0.9-3.1,1.6-4.9,2.1c-1.8,0.5-3.9,0.8-6.2,0.8
				c-2.2,0-4.2-0.4-5.9-1.1c-1.8-0.7-3.3-1.7-4.5-2.9c-1.2-1.2-2.2-2.7-2.9-4.4c-0.7-1.7-1-3.5-1-5.5c0-2.4,0.5-4.5,1.4-6.5
				c1-1.9,2.3-3.6,3.9-5.2c1.6-1.5,3.6-2.9,5.8-4.1c2.2-1.2,4.5-2.2,7-3.2c2.5-0.9,5-1.8,7.6-2.5c2.6-0.7,5.2-1.4,7.7-2v-3.5
				c0-2.5-0.3-4.7-0.8-6.4c-0.5-1.7-1.2-3.2-2.2-4.2c-0.9-1.1-2.1-1.8-3.4-2.3c-1.3-0.5-2.8-0.7-4.5-0.7c-1.9,0-3.4,0.2-4.6,0.7
				c-1.2,0.5-2.1,1.1-2.8,1.9c-0.7,0.8-1.1,1.7-1.4,2.7c-0.2,1-0.4,2.1-0.4,3.1c0,1-0.1,1.9-0.2,2.8c-0.2,0.9-0.4,1.7-0.9,2.4
				c-0.4,0.7-1,1.2-1.7,1.6c-0.7,0.4-1.6,0.6-2.7,0.6c-0.9,0-1.7-0.2-2.4-0.5c-0.7-0.3-1.3-0.8-1.8-1.4c-0.5-0.6-0.9-1.3-1.2-2.1
				c-0.3-0.8-0.4-1.7-0.4-2.6c0-1.8,0.6-3.5,1.8-5.1c1.2-1.6,2.8-3,4.9-4.1c2-1.2,4.4-2.1,7.2-2.8c2.7-0.7,5.6-1,8.6-1
				c3.7,0,6.8,0.4,9.3,1.1c2.5,0.7,4.6,1.7,6.1,3c1.6,1.3,2.7,2.8,3.4,4.7c0.7,1.8,1,3.9,1,6.1V653z M595.4,620.5
				c-1.6,0.5-3.2,1.1-5,1.8c-1.7,0.7-3.4,1.4-5,2.2c-1.6,0.8-3.2,1.7-4.7,2.6c-1.5,1-2.8,2-3.9,3c-1.1,1.1-2,2.2-2.7,3.4
				c-0.7,1.2-1,2.5-1,3.8c0,1.4,0.3,2.6,0.8,3.9c0.5,1.2,1.2,2.3,2,3.2c0.8,0.9,1.8,1.6,2.9,2.2c1.1,0.5,2.2,0.8,3.4,0.8
				c1.2,0,2.4-0.2,3.6-0.5c1.1-0.3,2.2-0.8,3.3-1.3c1.1-0.6,2.1-1.2,3.2-1.9c1.1-0.7,2.1-1.5,3.2-2.4V620.5z"/>
		</g>
		<g>
			<path d="M621.3,597.2h11.1v11.4c1.1-1.4,2.3-2.9,3.7-4.3c1.4-1.5,2.9-2.8,4.5-4c1.7-1.2,3.5-2.2,5.5-3c2-0.8,4.2-1.2,6.6-1.2
				c3.3,0,6.3,0.7,9,2.1c2.7,1.4,5,3.3,6.9,5.6c1.9,2.4,3.4,5.2,4.4,8.3c1,3.2,1.6,6.6,1.6,10.2c0,4.6-0.6,8.9-1.9,12.7
				c-1.3,3.9-3.1,7.3-5.5,10.1c-2.4,2.8-5.2,5.1-8.6,6.6c-3.4,1.6-7.1,2.4-11.3,2.4c-1.6,0-3-0.1-4.3-0.2c-1.3-0.2-2.6-0.4-3.8-0.7
				s-2.3-0.8-3.5-1.3c-1.1-0.5-2.2-1.1-3.4-1.9v26.4h-11.1V597.2z M632.4,637.9c0,1.7,0.4,3.2,1.1,4.7c0.7,1.5,1.7,2.8,3.1,3.9
				c1.3,1.1,2.9,2,4.7,2.6c1.8,0.6,3.8,1,6,1c2.1,0,4-0.5,5.8-1.6c1.8-1.1,3.4-2.6,4.8-4.5c1.4-1.9,2.4-4.2,3.2-6.9
				c0.8-2.7,1.2-5.7,1.2-9c0-4.1-0.4-7.7-1.1-10.8s-1.7-5.6-3-7.7c-1.3-2-2.8-3.6-4.6-4.6c-1.8-1-3.7-1.5-5.8-1.5
				c-1.6,0-3.2,0.3-4.6,0.8c-1.5,0.5-2.9,1.2-4.2,2s-2.5,1.8-3.6,2.9c-1.1,1.1-2.1,2.2-3,3.4V637.9z"/>
		</g>
		<g>
			<path d="M690.8,568.6c0.9,0,1.7,0.1,2.5,0.4c0.8,0.3,1.5,0.7,2,1.2c0.6,0.5,1,1.1,1.4,1.8c0.3,0.7,0.5,1.4,0.5,2.2
				c0,0.8-0.2,1.5-0.5,2.2c-0.3,0.7-0.8,1.3-1.4,1.8c-0.6,0.5-1.2,0.9-2,1.2c-0.8,0.3-1.6,0.4-2.5,0.4c-0.9,0-1.7-0.1-2.4-0.4
				c-0.8-0.3-1.4-0.7-2-1.2c-0.6-0.5-1-1.1-1.4-1.8c-0.3-0.7-0.5-1.4-0.5-2.2c0-0.8,0.2-1.5,0.5-2.2c0.3-0.7,0.8-1.3,1.4-1.8
				c0.6-0.5,1.2-0.9,2-1.2C689.2,568.8,690,568.6,690.8,568.6z M685.4,599.2l7.8-3.2h3.2V653h-11V599.2z"/>
		</g>
		<g>
			<path d="M734.7,654.2c-3.8,0-7.3-0.7-10.6-2.1c-3.3-1.4-6.2-3.3-8.7-5.8c-2.5-2.4-4.4-5.3-5.9-8.6c-1.4-3.3-2.2-6.8-2.2-10.5
				c0-4.5,0.7-8.6,2-12.4c1.3-3.8,3.2-7.1,5.6-9.9c2.4-2.8,5.3-4.9,8.6-6.5c3.4-1.6,7.1-2.3,11.2-2.3c3.7,0,7,0.6,10.1,1.9
				c3,1.3,5.7,3,7.8,5.2c2.2,2.2,3.9,4.7,5.1,7.5c1.2,2.8,1.8,5.8,1.8,8.9H718c0,3.7,0.5,7.2,1.5,10.4c1,3.2,2.3,6,4.1,8.3
				c1.7,2.3,3.8,4.1,6.2,5.5c2.4,1.3,5.1,2,7.9,2c2.4,0,4.7-0.4,7-1.2c2.2-0.8,4.2-1.8,6-3.1c1.8-1.3,3.3-2.7,4.6-4.4
				c1.3-1.6,2.2-3.3,2.7-5.1l3.2,1.4c-0.8,2.9-2.1,5.6-3.9,8.1c-1.8,2.5-3.9,4.7-6.2,6.6c-2.4,1.9-5,3.3-7.8,4.4
				C740.4,653.6,737.5,654.2,734.7,654.2z M745.7,615.1c0-2.1-0.4-4.1-1.1-5.9c-0.7-1.8-1.8-3.4-3.1-4.7c-1.3-1.3-2.8-2.4-4.6-3.1
				c-1.7-0.8-3.6-1.1-5.6-1.1c-1.7,0-3.3,0.4-4.8,1.1c-1.5,0.8-2.9,1.8-4.1,3.1c-1.2,1.3-2.2,2.9-3,4.7c-0.8,1.8-1.3,3.8-1.4,5.9
				L745.7,615.1z"/>
		</g>
		<g>
			<path d="M811,647.5c-1.3,1-2.7,2-4.2,2.8c-1.5,0.8-3,1.5-4.6,2.1s-3.2,1-4.9,1.3c-1.6,0.3-3.2,0.5-4.8,0.5
				c-3.3,0-6.4-0.8-9.2-2.3c-2.9-1.5-5.3-3.6-7.5-6.2s-3.8-5.6-5-9c-1.2-3.4-1.8-7-1.8-10.9c0-2.5,0.4-5,1.1-7.5
				c0.7-2.5,1.7-4.8,3-7c1.3-2.2,2.8-4.2,4.6-6.1c1.8-1.9,3.8-3.5,5.9-4.9c2.2-1.4,4.5-2.4,7-3.2c2.5-0.8,5.1-1.1,7.8-1.1
				c2.7,0,5.1,0.5,7.1,1.4c2,1,3.9,2.2,5.7,3.8v-29.4l7.7-3.2h3.3v85.5h-11V647.5z M811,614.9c0-2.2-0.4-4.2-1.2-6
				c-0.8-1.8-1.9-3.4-3.2-4.6c-1.3-1.3-2.8-2.3-4.5-3c-1.7-0.7-3.3-1.1-5-1.1c-2.2,0-4.3,0.6-6.2,1.7c-1.9,1.1-3.6,2.6-5,4.6
				c-1.4,2-2.6,4.3-3.4,7.1c-0.8,2.8-1.2,5.8-1.2,9.1c0,3.5,0.5,6.8,1.4,9.9c0.9,3.1,2.2,5.8,3.8,8.1c1.6,2.3,3.5,4.1,5.6,5.5
				c2.1,1.3,4.4,2,6.8,2c1.2,0,2.3-0.2,3.5-0.5c1.2-0.3,2.3-0.7,3.3-1.2c1.1-0.5,2.1-1.1,3-1.8c0.9-0.7,1.7-1.4,2.4-2.2V614.9z"/>
		</g>
		<g>
			<path d="M834.9,597.2h11v10.5c1.1-1.6,2.2-3,3.5-4.5c1.2-1.4,2.5-2.7,3.9-3.7c1.4-1.1,2.7-1.9,4.2-2.5c1.4-0.6,2.9-0.9,4.4-0.9
				c1.2,0,2.3,0.2,3.4,0.5c1,0.4,1.9,0.8,2.7,1.5c0.8,0.6,1.4,1.3,1.8,2.1c0.4,0.8,0.7,1.7,0.7,2.6c0,1.8-0.6,3.2-1.7,4.1
				c-1.1,0.9-2.7,1.4-4.7,1.4c-1.2,0-2.2-0.1-3-0.4c-0.7-0.3-1.4-0.6-2-0.9c-0.6-0.3-1.2-0.6-1.8-0.9c-0.6-0.3-1.4-0.4-2.3-0.4
				c-0.7,0-1.5,0.2-2.2,0.6c-0.7,0.4-1.5,1-2.2,1.8c-0.7,0.8-1.5,1.7-2.3,2.8c-0.8,1.1-1.5,2.2-2.3,3.5V653h-11V597.2z"/>
		</g>
		<g>
			<path d="M918.7,653h-11.1v-7.6c-1.3,1-2.6,2-3.9,3.1c-1.3,1-2.6,2-4.1,2.9c-1.5,0.9-3.1,1.6-4.9,2.1c-1.8,0.5-3.9,0.8-6.2,0.8
				c-2.2,0-4.2-0.4-5.9-1.1c-1.8-0.7-3.3-1.7-4.5-2.9c-1.2-1.2-2.2-2.7-2.9-4.4c-0.7-1.7-1-3.5-1-5.5c0-2.4,0.5-4.5,1.4-6.5
				c1-1.9,2.3-3.6,3.9-5.2c1.6-1.5,3.6-2.9,5.8-4.1c2.2-1.2,4.5-2.2,7-3.2c2.5-0.9,5-1.8,7.6-2.5c2.6-0.7,5.2-1.4,7.7-2v-3.5
				c0-2.5-0.3-4.7-0.8-6.4c-0.5-1.7-1.2-3.2-2.2-4.2c-0.9-1.1-2.1-1.8-3.4-2.3c-1.3-0.5-2.8-0.7-4.5-0.7c-1.9,0-3.4,0.2-4.6,0.7
				c-1.2,0.5-2.1,1.1-2.8,1.9c-0.7,0.8-1.1,1.7-1.4,2.7c-0.2,1-0.4,2.1-0.4,3.1c0,1-0.1,1.9-0.2,2.8c-0.2,0.9-0.4,1.7-0.9,2.4
				c-0.4,0.7-1,1.2-1.7,1.6c-0.7,0.4-1.6,0.6-2.7,0.6c-0.9,0-1.7-0.2-2.4-0.5c-0.7-0.3-1.3-0.8-1.8-1.4c-0.5-0.6-0.9-1.3-1.2-2.1
				c-0.3-0.8-0.4-1.7-0.4-2.6c0-1.8,0.6-3.5,1.8-5.1c1.2-1.6,2.8-3,4.9-4.1c2-1.2,4.4-2.1,7.2-2.8c2.7-0.7,5.6-1,8.6-1
				c3.7,0,6.8,0.4,9.3,1.1c2.5,0.7,4.6,1.7,6.1,3c1.6,1.3,2.7,2.8,3.4,4.7c0.7,1.8,1,3.9,1,6.1V653z M907.6,620.5
				c-1.6,0.5-3.2,1.1-5,1.8c-1.7,0.7-3.4,1.4-5,2.2c-1.6,0.8-3.2,1.7-4.7,2.6c-1.5,1-2.8,2-3.9,3c-1.1,1.1-2,2.2-2.7,3.4
				c-0.7,1.2-1,2.5-1,3.8c0,1.4,0.3,2.6,0.8,3.9c0.5,1.2,1.2,2.3,2,3.2c0.8,0.9,1.8,1.6,2.9,2.2c1.1,0.5,2.2,0.8,3.4,0.8
				c1.2,0,2.4-0.2,3.6-0.5c1.1-0.3,2.2-0.8,3.3-1.3c1.1-0.6,2.1-1.2,3.2-1.9c1.1-0.7,2.1-1.5,3.2-2.4V620.5z"/>
		</g>
		<g>
			<path d="M944.6,607.4c3.4-3.8,6.9-6.6,10.5-8.5c3.6-1.9,7.3-2.8,11.1-2.8c1.9,0,3.8,0.4,5.5,1.3c1.7,0.9,3.2,2.1,4.5,3.6
				c1.3,1.5,2.3,3.3,3,5.4c0.7,2.1,1.1,4.3,1.1,6.6v40h-11.1v-38.2c0-3.7-0.8-6.5-2.5-8.4c-1.7-1.9-3.8-2.9-6.4-2.9
				c-1.2,0-2.4,0.2-3.7,0.6c-1.3,0.4-2.6,0.9-4,1.6c-1.4,0.7-2.7,1.6-4,2.5c-1.3,1-2.6,2.1-3.9,3.3V653h-11.1v-81.2l7.9-3.2h3.2
				V607.4z"/>
		</g>
		<g>
			<path d="M999.1,568.6c0.9,0,1.7,0.1,2.5,0.4c0.8,0.3,1.5,0.7,2,1.2c0.6,0.5,1,1.1,1.4,1.8c0.3,0.7,0.5,1.4,0.5,2.2
				c0,0.8-0.2,1.5-0.5,2.2c-0.3,0.7-0.8,1.3-1.4,1.8c-0.6,0.5-1.2,0.9-2,1.2c-0.8,0.3-1.6,0.4-2.5,0.4c-0.9,0-1.7-0.1-2.4-0.4
				c-0.8-0.3-1.4-0.7-2-1.2c-0.6-0.5-1-1.1-1.4-1.8c-0.3-0.7-0.5-1.4-0.5-2.2c0-0.8,0.2-1.5,0.5-2.2c0.3-0.7,0.8-1.3,1.4-1.8
				c0.6-0.5,1.2-0.9,2-1.2C997.4,568.8,998.2,568.6,999.1,568.6z M993.7,599.2l7.8-3.2h3.2V653h-11V599.2z"/>
		</g>
		<g>
			<path d="M1047.9,645.9c-1.5,2.6-3.5,4.6-5.9,6.1c-2.5,1.5-5.5,2.2-9.1,2.2c-1.9,0-3.5-0.3-4.9-0.9c-1.4-0.6-2.5-1.5-3.4-2.6
				c-0.9-1.1-1.6-2.5-2-4.1c-0.4-1.6-0.6-3.4-0.6-5.3v-39.3h-9.7v-2.8c3.1,0,5.7-0.6,7.7-1.7c2-1.1,3.7-2.6,4.9-4.6
				c1.3-1.9,2.3-4.1,3-6.7c0.7-2.5,1.4-5.2,1.9-8h3.2v19.1h12.5v4.7h-12.5v39.3c0,0.8,0.2,1.6,0.5,2.3s0.7,1.4,1.3,1.9
				c0.5,0.5,1.2,1,1.9,1.3c0.7,0.3,1.5,0.5,2.4,0.5c1.2,0,2.4-0.3,3.4-0.9c1-0.6,1.9-1.4,2.7-2.3L1047.9,645.9z"/>
		</g>
		<g>
			<path d="M1095.7,653h-11.1v-7.6c-1.3,1-2.6,2-3.9,3.1c-1.3,1-2.6,2-4.1,2.9c-1.5,0.9-3.1,1.6-4.9,2.1c-1.8,0.5-3.9,0.8-6.2,0.8
				c-2.2,0-4.2-0.4-5.9-1.1c-1.8-0.7-3.3-1.7-4.5-2.9c-1.2-1.2-2.2-2.7-2.9-4.4c-0.7-1.7-1-3.5-1-5.5c0-2.4,0.5-4.5,1.4-6.5
				c1-1.9,2.3-3.6,3.9-5.2c1.6-1.5,3.6-2.9,5.8-4.1c2.2-1.2,4.5-2.2,7-3.2c2.5-0.9,5-1.8,7.6-2.5c2.6-0.7,5.2-1.4,7.7-2v-3.5
				c0-2.5-0.3-4.7-0.8-6.4c-0.5-1.7-1.2-3.2-2.2-4.2c-0.9-1.1-2.1-1.8-3.4-2.3c-1.3-0.5-2.8-0.7-4.5-0.7c-1.9,0-3.4,0.2-4.6,0.7
				c-1.2,0.5-2.1,1.1-2.8,1.9c-0.7,0.8-1.1,1.7-1.4,2.7c-0.2,1-0.4,2.1-0.4,3.1c0,1-0.1,1.9-0.2,2.8c-0.2,0.9-0.4,1.7-0.9,2.4
				c-0.4,0.7-1,1.2-1.7,1.6c-0.7,0.4-1.6,0.6-2.7,0.6c-0.9,0-1.7-0.2-2.4-0.5c-0.7-0.3-1.3-0.8-1.8-1.4c-0.5-0.6-0.9-1.3-1.2-2.1
				c-0.3-0.8-0.4-1.7-0.4-2.6c0-1.8,0.6-3.5,1.8-5.1c1.2-1.6,2.8-3,4.9-4.1c2-1.2,4.4-2.1,7.2-2.8c2.7-0.7,5.6-1,8.6-1
				c3.7,0,6.8,0.4,9.3,1.1c2.5,0.7,4.6,1.7,6.1,3c1.6,1.3,2.7,2.8,3.4,4.7c0.7,1.8,1,3.9,1,6.1V653z M1084.6,620.5
				c-1.6,0.5-3.2,1.1-5,1.8c-1.7,0.7-3.4,1.4-5,2.2c-1.6,0.8-3.2,1.7-4.7,2.6c-1.5,1-2.8,2-3.9,3c-1.1,1.1-2,2.2-2.7,3.4
				c-0.7,1.2-1,2.5-1,3.8c0,1.4,0.3,2.6,0.8,3.9c0.5,1.2,1.2,2.3,2,3.2c0.8,0.9,1.8,1.6,2.9,2.2c1.1,0.5,2.2,0.8,3.4,0.8
				c1.2,0,2.4-0.2,3.6-0.5c1.1-0.3,2.2-0.8,3.3-1.3c1.1-0.6,2.1-1.2,3.2-1.9c1.1-0.7,2.1-1.5,3.2-2.4V620.5z"/>
		</g>
		<g>
			<path d="M1170.5,605.2l8.7-1l-10,33.7c-0.4,1.4-0.8,2.8-1,4c-0.3,1.3-0.4,2.6-0.4,3.9c0,0.7,0.1,1.4,0.2,2.1
				c0.1,0.6,0.3,1.2,0.6,1.7c0.3,0.5,0.7,0.9,1.1,1.1c0.4,0.3,1,0.4,1.6,0.4c1.6,0,3.3-0.4,5-1.3c1.7-0.8,3.4-2,5.1-3.6
				c1.6-1.5,3.2-3.4,4.7-5.5c1.5-2.1,2.8-4.5,3.9-7.1c1.1-2.6,2-5.3,2.6-8.3c0.7-2.9,1-5.9,1-9.1c0-4.9-0.9-9.4-2.7-13.5
				c-1.8-4.1-4.2-7.6-7.1-10.6c-3-3-6.4-5.3-10.4-7c-3.9-1.7-8.1-2.5-12.4-2.5c-6.9,0-13.2,1.2-18.9,3.6c-5.7,2.4-10.5,5.7-14.6,9.8
				c-4,4.2-7.2,9.1-9.4,14.7c-2.2,5.6-3.3,11.6-3.3,18.1c0,3.8,0.5,7.5,1.4,11.1c0.9,3.6,2.2,7,4,10.2c1.7,3.2,3.8,6.1,6.3,8.8
				c2.5,2.6,5.3,4.9,8.4,6.8c3.2,1.9,6.6,3.4,10.3,4.5c3.7,1.1,7.7,1.6,12,1.6c3.7,0,7.2-0.4,10.5-1.3c3.2-0.8,6.2-2,8.9-3.4
				c2.7-1.4,5.2-3.1,7.4-5.1c2.2-2,4.2-4,6-6.3c1.8-2.2,3.4-4.5,4.7-6.9c1.4-2.4,2.5-4.7,3.5-7l4.1,1.1c-2.2,5-4.7,9.6-7.6,13.6
				c-2.8,4.1-6.1,7.5-9.8,10.4c-3.7,2.9-7.9,5.1-12.6,6.6c-4.7,1.6-10,2.3-16,2.3c-7.2,0-13.7-1.2-19.4-3.7
				c-5.7-2.5-10.6-5.9-14.6-10.2c-4-4.3-7.1-9.4-9.2-15.2s-3.2-12.1-3.2-18.7c0-4.7,0.6-9.2,1.7-13.5s2.8-8.2,4.9-11.8
				c2.1-3.6,4.7-6.9,7.7-9.8c3-2.9,6.4-5.4,10.2-7.5c3.7-2.1,7.8-3.7,12.2-4.8c4.4-1.1,9-1.7,13.9-1.7c3.5,0,6.8,0.4,10,1.2
				c3.2,0.8,6.2,2,8.9,3.5c2.8,1.5,5.3,3.4,7.5,5.6c2.3,2.2,4.2,4.7,5.7,7.5c1.6,2.8,2.8,5.9,3.7,9.2c0.9,3.3,1.3,6.9,1.3,10.7
				c0,3.4-0.3,6.6-1,9.8c-0.7,3.2-1.7,6.2-2.9,9c-1.3,2.8-2.8,5.4-4.5,7.8c-1.7,2.4-3.6,4.4-5.7,6.1c-2.1,1.7-4.2,3-6.5,4
				c-2.3,1-4.7,1.4-7.1,1.4c-1.5,0-2.9-0.1-4.2-0.4c-1.3-0.2-2.4-0.7-3.4-1.3c-1-0.6-1.7-1.5-2.2-2.5c-0.5-1-0.8-2.4-0.8-3.9
				c0-1.2,0.1-2.4,0.2-3.7c0.1-1.3,0.3-2.6,0.6-3.9c-0.2,0.2-0.4,0.5-0.6,0.9c-0.2,0.3-0.4,0.6-0.6,0.9c-1.3,1.5-2.7,3.1-4.2,4.8
				c-1.5,1.6-3,3.1-4.6,4.5c-1.6,1.4-3.2,2.5-4.9,3.3c-1.7,0.9-3.4,1.3-5.1,1.3c-1.7,0-3.2-0.4-4.4-1.1c-1.2-0.7-2.2-1.7-3-2.8
				c-0.8-1.2-1.4-2.5-1.8-4.1c-0.4-1.5-0.6-3.1-0.6-4.7c0-2.5,0.4-5.1,1.1-8c0.8-2.9,1.8-5.8,3.2-8.6c1.4-2.9,3-5.7,4.9-8.4
				c1.9-2.7,3.9-5.1,6.1-7.1c2.2-2.1,4.6-3.7,7-5c2.5-1.2,5-1.9,7.6-1.9c1.1,0,2.2,0.3,3.1,0.8c0.9,0.5,1.7,1.2,2.4,2.1
				c0.7,0.9,1.2,1.8,1.6,2.9c0.4,1.1,0.7,2.2,0.9,3.2L1170.5,605.2z M1143.6,647.9c1.8,0,3.5-0.6,5.3-1.7c1.8-1.1,3.5-2.6,5.2-4.4
				c1.6-1.9,3.2-4,4.6-6.4c1.4-2.4,2.7-4.8,3.8-7.4c1.1-2.5,1.9-5,2.5-7.5c0.6-2.5,0.9-4.8,0.9-6.8c0-1-0.2-2-0.7-2.9
				c-0.5-1-1-1.8-1.7-2.5c-0.7-0.7-1.4-1.3-2.2-1.7c-0.8-0.4-1.6-0.6-2.3-0.6c-2,0-3.9,0.6-5.7,1.8c-1.8,1.2-3.5,2.7-5.1,4.6
				c-1.6,1.9-3,4.1-4.3,6.6c-1.3,2.5-2.4,5-3.3,7.5c-0.9,2.6-1.6,5.1-2.1,7.5c-0.5,2.4-0.8,4.6-0.8,6.5c0,0.8,0.1,1.6,0.2,2.4
				c0.2,0.9,0.5,1.7,0.9,2.4c0.4,0.7,1,1.4,1.8,1.9C1141.4,647.6,1142.4,647.9,1143.6,647.9z"/>
		</g>
		<g>
			<path d="M1269.1,600.1v4.6h-10.6c1.1,1.5,2,3.2,2.6,5.1c0.7,1.9,1,3.8,1,5.6c0,2.9-0.6,5.5-1.9,7.9c-1.3,2.4-3.1,4.4-5.3,6.1
				c-2.3,1.7-5,3-8.2,4c-3.2,0.9-6.7,1.4-10.5,1.4c-1.4,0-2.8-0.1-4.3-0.4c-1.5-0.2-2.7-0.5-3.8-0.9c-1.1,0.9-2,1.9-2.7,3
				s-1.1,2.3-1.1,3.5c0,1.1,0.6,2,1.8,2.7c1.2,0.7,3,1.1,5.2,1.1l20.7,0.9c3.3,0.1,6,0.5,8.2,1.2c2.2,0.6,4,1.5,5.3,2.5
				c1.3,1.1,2.2,2.3,2.8,3.8c0.5,1.5,0.8,3.1,0.8,4.9c0,3.3-0.8,6.2-2.3,8.8c-1.5,2.6-3.7,4.9-6.5,6.7c-2.9,1.9-6.3,3.3-10.4,4.3
				c-4.1,1-8.7,1.5-13.9,1.5c-9.2,0-16.1-1-20.6-3.1c-4.6-2.1-6.8-4.8-6.8-8.3c0-1.5,0.4-3,1.1-4.4c0.8-1.4,1.7-2.8,2.9-4.1
				s2.5-2.5,4-3.7c1.5-1.2,2.9-2.3,4.3-3.5c-1-0.3-2-0.7-2.9-1.1c-0.9-0.4-1.6-1-2.3-1.5s-1.2-1.2-1.5-1.9c-0.4-0.7-0.6-1.4-0.6-2.2
				c0-1.1,0.3-2.3,0.9-3.5c0.6-1.2,1.4-2.3,2.4-3.5c1-1.1,2.2-2.1,3.6-3c1.4-0.9,2.8-1.7,4.4-2.3c-3.8-1.6-6.7-3.8-8.8-6.7
				c-2.1-2.9-3.2-6.1-3.2-9.8c0-2.7,0.6-5.3,1.9-7.8c1.3-2.4,3-4.6,5.2-6.4c2.2-1.8,4.8-3.3,7.8-4.3c3-1.1,6.2-1.6,9.6-1.6
				c1.7,0,3.3,0.1,4.9,0.3c1.6,0.2,3.1,0.5,4.5,0.9c1.4,0.4,2.6,0.8,3.7,1.3c1.1,0.5,1.9,1,2.5,1.6H1269.1z M1224.3,652.5
				c-0.8,0.6-1.6,1.3-2.2,2.1c-0.6,0.8-1.2,1.6-1.6,2.4c-0.4,0.8-0.8,1.7-1,2.5c-0.2,0.8-0.3,1.7-0.3,2.4c0,1.2,0.4,2.4,1.3,3.6
				c0.9,1.1,2.2,2.1,3.9,3c1.7,0.9,3.9,1.6,6.6,2.1c2.6,0.5,5.7,0.8,9.2,0.8c3.7,0,7-0.3,10-0.9c2.9-0.6,5.4-1.4,7.5-2.3
				c2-1,3.6-2.1,4.7-3.2c1.1-1.2,1.6-2.4,1.6-3.6c0-2.5-1.2-4.3-3.7-5.5c-2.5-1.1-5.9-1.7-10.2-1.7c-2.7,0-5.4-0.1-8.1-0.2
				c-2.7-0.1-5.3-0.3-7.7-0.4c-2.4-0.2-4.4-0.4-6.2-0.5C1226.3,652.8,1225,652.7,1224.3,652.5z M1238.1,632c1.6,0,3.1-0.4,4.5-1.1
				c1.5-0.7,2.7-1.7,3.8-2.9c1.1-1.2,2-2.7,2.6-4.4c0.7-1.7,1-3.4,1-5.3c0-2.7-0.4-5.3-1.1-7.6c-0.7-2.3-1.8-4.4-3-6.1
				c-1.3-1.7-2.8-3.1-4.5-4.1c-1.7-1-3.5-1.5-5.4-1.5c-1.9,0-3.5,0.4-4.9,1.2c-1.4,0.8-2.5,1.8-3.4,3.2c-0.9,1.4-1.5,2.9-1.9,4.8
				c-0.4,1.8-0.6,3.8-0.6,5.9c0,2.5,0.3,4.9,0.9,7.1s1.5,4.1,2.6,5.7c1.1,1.6,2.5,2.9,4.1,3.8C1234.5,631.5,1236.2,632,1238.1,632z"
				/>
		</g>
		<g>
			<path d="M1279.4,597.2h11.1v10.4c1.4-1.6,3-3,4.8-4.4c1.8-1.4,3.6-2.6,5.5-3.7c1.9-1.1,3.8-1.9,5.7-2.5c1.9-0.6,3.7-0.9,5.4-0.9
				c1.7,0,3.3,0.3,5,0.9c1.7,0.6,3.2,1.4,4.7,2.5c1.4,1.1,2.7,2.3,3.7,3.7c1,1.4,1.7,3,2,4.7c0.9-1.6,2.2-3.2,3.8-4.6
				c1.6-1.4,3.4-2.7,5.4-3.7c2-1.1,4.1-1.9,6.2-2.5c2.2-0.6,4.3-0.9,6.4-0.9c2.1,0,4.1,0.5,5.9,1.4c1.9,0.9,3.5,2.2,4.9,3.8
				c1.4,1.6,2.5,3.4,3.3,5.6s1.2,4.4,1.2,6.8V653h-11.1v-37.8c0-1.6-0.3-3-0.8-4.4c-0.5-1.4-1.3-2.6-2.2-3.7c-0.9-1.1-2-1.9-3.2-2.5
				c-1.2-0.6-2.5-0.9-3.8-0.9c-1.5,0-3.1,0.2-4.6,0.6c-1.6,0.4-3.1,1-4.5,1.7c-1.4,0.7-2.7,1.6-3.9,2.5c-1.2,1-2.1,2-2.8,3.1V653
				h-11.1v-37.8c0-1.6-0.3-3-0.8-4.4c-0.5-1.4-1.3-2.6-2.2-3.7c-0.9-1.1-2-1.9-3.2-2.5c-1.2-0.6-2.5-0.9-3.8-0.9
				c-1.4,0-2.9,0.2-4.4,0.6c-1.5,0.4-3,1-4.4,1.7c-1.4,0.7-2.8,1.6-4,2.5c-1.2,1-2.3,2-3.1,3V653h-11.1V597.2z"/>
		</g>
		<g>
			<path d="M1418.3,653h-11.1v-7.6c-1.3,1-2.6,2-3.9,3.1c-1.3,1-2.6,2-4.1,2.9c-1.5,0.9-3.1,1.6-4.9,2.1c-1.8,0.5-3.9,0.8-6.2,0.8
				c-2.2,0-4.2-0.4-5.9-1.1c-1.8-0.7-3.3-1.7-4.5-2.9c-1.2-1.2-2.2-2.7-2.9-4.4c-0.7-1.7-1-3.5-1-5.5c0-2.4,0.5-4.5,1.4-6.5
				c1-1.9,2.3-3.6,3.9-5.2c1.6-1.5,3.6-2.9,5.8-4.1c2.2-1.2,4.5-2.2,7-3.2c2.5-0.9,5-1.8,7.6-2.5c2.6-0.7,5.2-1.4,7.7-2v-3.5
				c0-2.5-0.3-4.7-0.8-6.4c-0.5-1.7-1.2-3.2-2.2-4.2c-0.9-1.1-2.1-1.8-3.4-2.3c-1.3-0.5-2.8-0.7-4.5-0.7c-1.9,0-3.4,0.2-4.6,0.7
				c-1.2,0.5-2.1,1.1-2.8,1.9c-0.7,0.8-1.1,1.7-1.4,2.7c-0.2,1-0.4,2.1-0.4,3.1c0,1-0.1,1.9-0.2,2.8c-0.2,0.9-0.4,1.7-0.9,2.4
				c-0.4,0.7-1,1.2-1.7,1.6c-0.7,0.4-1.6,0.6-2.7,0.6c-0.9,0-1.7-0.2-2.4-0.5c-0.7-0.3-1.3-0.8-1.8-1.4c-0.5-0.6-0.9-1.3-1.2-2.1
				c-0.3-0.8-0.4-1.7-0.4-2.6c0-1.8,0.6-3.5,1.8-5.1c1.2-1.6,2.8-3,4.9-4.1c2-1.2,4.4-2.1,7.2-2.8c2.7-0.7,5.6-1,8.6-1
				c3.7,0,6.8,0.4,9.3,1.1c2.5,0.7,4.6,1.7,6.1,3c1.6,1.3,2.7,2.8,3.4,4.7c0.7,1.8,1,3.9,1,6.1V653z M1407.1,620.5
				c-1.6,0.5-3.2,1.1-5,1.8c-1.7,0.7-3.4,1.4-5,2.2c-1.6,0.8-3.2,1.7-4.7,2.6c-1.5,1-2.8,2-3.9,3c-1.1,1.1-2,2.2-2.7,3.4
				c-0.7,1.2-1,2.5-1,3.8c0,1.4,0.3,2.6,0.8,3.9c0.5,1.2,1.2,2.3,2,3.2c0.8,0.9,1.8,1.6,2.9,2.2c1.1,0.5,2.2,0.8,3.4,0.8
				c1.2,0,2.4-0.2,3.6-0.5c1.1-0.3,2.2-0.8,3.3-1.3c1.1-0.6,2.1-1.2,3.2-1.9c1.1-0.7,2.1-1.5,3.2-2.4V620.5z"/>
		</g>
		<g>
			<path d="M1439,568.6c0.9,0,1.7,0.1,2.5,0.4c0.8,0.3,1.5,0.7,2,1.2c0.6,0.5,1,1.1,1.4,1.8c0.3,0.7,0.5,1.4,0.5,2.2
				c0,0.8-0.2,1.5-0.5,2.2c-0.3,0.7-0.8,1.3-1.4,1.8c-0.6,0.5-1.2,0.9-2,1.2c-0.8,0.3-1.6,0.4-2.5,0.4c-0.9,0-1.7-0.1-2.4-0.4
				c-0.8-0.3-1.4-0.7-2-1.2c-0.6-0.5-1-1.1-1.4-1.8c-0.3-0.7-0.5-1.4-0.5-2.2c0-0.8,0.2-1.5,0.5-2.2c0.3-0.7,0.8-1.3,1.4-1.8
				c0.6-0.5,1.2-0.9,2-1.2C1437.3,568.8,1438.1,568.6,1439,568.6z M1433.6,599.2l7.8-3.2h3.2V653h-11V599.2z"/>
		</g>
		<g>
			<path d="M1469.7,653h-11.1v-81.2l7.9-3.2h3.2V653z"/>
		</g>
		<g>
			<path d="M1488.6,643.2c0.8,0,1.6,0.1,2.3,0.4c0.7,0.3,1.3,0.7,1.9,1.2c0.5,0.5,1,1.1,1.3,1.8c0.3,0.7,0.5,1.4,0.5,2.2
				c0,0.8-0.2,1.5-0.5,2.3c-0.3,0.7-0.7,1.3-1.3,1.8c-0.5,0.5-1.2,0.9-1.9,1.2c-0.7,0.3-1.5,0.4-2.3,0.4s-1.6-0.1-2.3-0.4
				c-0.7-0.3-1.4-0.7-1.9-1.2c-0.5-0.5-1-1.1-1.3-1.8c-0.3-0.7-0.5-1.5-0.5-2.3c0-0.8,0.2-1.5,0.5-2.2c0.3-0.7,0.7-1.3,1.3-1.8
				c0.5-0.5,1.2-0.9,1.9-1.2C1487,643.4,1487.8,643.2,1488.6,643.2z"/>
		</g>
		<g>
			<path d="M1530.7,654.2c-3.6,0-7.1-0.7-10.3-2.2c-3.2-1.4-6-3.4-8.4-5.9c-2.4-2.5-4.2-5.4-5.6-8.8c-1.4-3.4-2.1-6.9-2.1-10.8
				c0-4.2,0.8-8.2,2.3-11.9c1.5-3.7,3.6-6.9,6.2-9.7c2.6-2.8,5.7-5,9.2-6.5c3.5-1.6,7.3-2.4,11.3-2.4c3.1,0,6,0.3,8.6,1
				c2.6,0.7,4.9,1.6,6.8,2.8c1.9,1.2,3.4,2.6,4.5,4.2c1.1,1.6,1.6,3.4,1.6,5.2c0,0.8-0.2,1.6-0.6,2.4c-0.4,0.7-1,1.4-1.7,1.9
				c-0.7,0.6-1.5,1-2.4,1.3c-0.9,0.3-1.8,0.5-2.7,0.5c-1,0-1.9-0.2-2.7-0.5c-0.8-0.4-1.5-0.8-2.1-1.4s-1-1.2-1.3-1.9
				c-0.3-0.7-0.4-1.5-0.4-2.2c0-1.3-0.1-2.5-0.4-3.6c-0.3-1.1-0.8-2.1-1.5-2.9c-0.7-0.8-1.6-1.5-2.9-1.9c-1.2-0.5-2.8-0.7-4.6-0.7
				c-2.5,0-4.8,0.5-6.8,1.5c-2,1-3.7,2.4-5.1,4.1c-1.4,1.7-2.4,3.8-3.2,6.1s-1.1,4.8-1.1,7.5c0,3.6,0.5,6.9,1.4,10.1
				c0.9,3.2,2.3,6,3.9,8.4c1.7,2.4,3.7,4.3,6.1,5.7c2.4,1.4,5.1,2.1,8,2.1c2.6,0,4.8-0.4,6.8-1.2c1.9-0.8,3.6-1.9,5-3.3
				c1.4-1.4,2.6-3,3.6-4.8c1-1.8,1.9-3.8,2.7-5.8l3.3,1.4c-0.9,3.5-2.2,6.6-3.8,9.4c-1.6,2.8-3.5,5.1-5.6,7
				c-2.2,1.9-4.6,3.4-7.3,4.4C1536.8,653.7,1533.9,654.2,1530.7,654.2z"/>
		</g>
		<g>
			<path d="M1593.8,654.2c-4.3,0-8.2-0.7-11.8-2.2c-3.6-1.5-6.7-3.5-9.3-6.1c-2.6-2.6-4.7-5.6-6.1-9c-1.5-3.4-2.2-7.1-2.2-11
				c0-4.1,0.7-8,2.2-11.6c1.5-3.6,3.5-6.8,6.1-9.5c2.6-2.7,5.7-4.8,9.3-6.4c3.6-1.6,7.6-2.3,11.8-2.3c4.3,0,8.2,0.7,11.8,2.1
				c3.6,1.4,6.7,3.4,9.3,5.8c2.6,2.5,4.7,5.4,6.2,8.7c1.5,3.3,2.2,6.9,2.2,10.7c0,4.2-0.7,8.2-2.2,11.9c-1.5,3.7-3.5,7-6.2,9.8
				c-2.6,2.8-5.7,5-9.3,6.6C1602,653.4,1598.1,654.2,1593.8,654.2z M1595.9,650.1c2.2,0,4.2-0.6,6-1.7c1.8-1.1,3.4-2.6,4.7-4.5
				c1.3-1.9,2.4-4.1,3.1-6.6c0.7-2.5,1.1-5.2,1.1-8c0-4.1-0.3-7.8-1-11.3c-0.7-3.5-1.8-6.6-3.4-9.2c-1.6-2.6-3.6-4.7-6.1-6.2
				c-2.5-1.5-5.6-2.3-9.2-2.3c-1.9,0-3.7,0.5-5.4,1.6c-1.7,1.1-3.3,2.5-4.6,4.4c-1.3,1.9-2.4,4.1-3.2,6.5c-0.8,2.5-1.2,5.1-1.2,7.9
				c0,4.1,0.4,7.9,1.3,11.4c0.9,3.6,2.1,6.7,3.7,9.3c1.6,2.6,3.6,4.7,6,6.3C1590.2,649.3,1592.9,650.1,1595.9,650.1z"/>
		</g>
		<g>
			<path d="M1633.9,597.2h11.1v10.4c1.4-1.6,3-3,4.8-4.4c1.8-1.4,3.6-2.6,5.5-3.7c1.9-1.1,3.8-1.9,5.7-2.5c1.9-0.6,3.7-0.9,5.4-0.9
				c1.7,0,3.3,0.3,5,0.9c1.7,0.6,3.2,1.4,4.7,2.5c1.4,1.1,2.7,2.3,3.7,3.7c1,1.4,1.7,3,2,4.7c0.9-1.6,2.2-3.2,3.8-4.6
				c1.6-1.4,3.4-2.7,5.4-3.7c2-1.1,4.1-1.9,6.2-2.5c2.2-0.6,4.3-0.9,6.4-0.9c2.1,0,4.1,0.5,5.9,1.4c1.9,0.9,3.5,2.2,4.9,3.8
				c1.4,1.6,2.5,3.4,3.3,5.6s1.2,4.4,1.2,6.8V653h-11.1v-37.8c0-1.6-0.3-3-0.8-4.4c-0.5-1.4-1.3-2.6-2.2-3.7c-0.9-1.1-2-1.9-3.2-2.5
				c-1.2-0.6-2.5-0.9-3.8-0.9c-1.5,0-3.1,0.2-4.6,0.6c-1.6,0.4-3.1,1-4.5,1.7c-1.4,0.7-2.7,1.6-3.9,2.5c-1.2,1-2.1,2-2.8,3.1V653
				H1671v-37.8c0-1.6-0.3-3-0.8-4.4c-0.5-1.4-1.3-2.6-2.2-3.7c-0.9-1.1-2-1.9-3.2-2.5c-1.2-0.6-2.5-0.9-3.8-0.9
				c-1.4,0-2.9,0.2-4.4,0.6c-1.5,0.4-3,1-4.4,1.7c-1.4,0.7-2.8,1.6-4,2.5c-1.2,1-2.3,2-3.1,3V653h-11.1V597.2z"/>
		</g>
		<g>
			<path d="M149.8,708.3H162v72.3h-12.2V708.3z"/>
		</g>
		<g>
			<path d="M177.5,724.8h11.1V735c3.4-3.8,6.9-6.6,10.5-8.5c3.6-1.9,7.3-2.8,11.1-2.8c1.9,0,3.8,0.4,5.5,1.3
				c1.7,0.9,3.2,2.1,4.5,3.6c1.3,1.5,2.3,3.3,3,5.4c0.7,2.1,1.1,4.3,1.1,6.6v40h-11.1v-38.2c0-3.7-0.8-6.5-2.5-8.4
				c-1.7-1.9-3.8-2.9-6.4-2.9c-1.2,0-2.4,0.2-3.7,0.6c-1.3,0.4-2.6,0.9-4,1.6c-1.4,0.7-2.7,1.6-4.1,2.5c-1.4,1-2.6,2.1-3.9,3.3v41.3
				h-11.1V724.8z"/>
		</g>
		<g>
			<path d="M254.8,778c1.5,0,2.9-0.2,4.2-0.7c1.3-0.5,2.4-1.1,3.3-1.8c0.9-0.8,1.6-1.6,2.2-2.6c0.5-1,0.8-2,0.8-3.1
				c0-1.7-0.4-3.2-1.3-4.4c-0.8-1.3-2-2.4-3.4-3.4c-1.4-1-3-1.9-4.8-2.8c-1.8-0.8-3.6-1.7-5.5-2.6c-1.9-0.9-3.7-1.8-5.5-2.9
				c-1.8-1-3.4-2.2-4.8-3.5c-1.4-1.3-2.5-2.9-3.4-4.6c-0.8-1.7-1.3-3.8-1.3-6.2c0-2.3,0.5-4.3,1.4-6.2c1-1.9,2.3-3.5,3.9-4.9
				c1.7-1.4,3.7-2.5,6-3.2c2.3-0.8,4.9-1.2,7.7-1.2c1.8,0,3.6,0.1,5.2,0.4c1.6,0.3,3.2,0.8,4.8,1.5c1.5,0.7,3.1,1.8,4.6,3.1
				c1.5,1.4,3.1,3.1,4.8,5.3l-4.1,3.6c-2.1-3.5-4.5-6-7.1-7.7c-2.6-1.7-5.4-2.5-8.4-2.5c-1.6,0-3,0.2-4.3,0.6
				c-1.3,0.4-2.4,0.9-3.4,1.6c-0.9,0.7-1.7,1.5-2.2,2.4c-0.5,0.9-0.8,1.9-0.8,2.9c0,1.7,0.5,3.1,1.4,4.4c0.9,1.2,2.2,2.4,3.7,3.4
				c1.5,1,3.3,1.9,5.2,2.8c1.9,0.8,3.9,1.7,6,2.6c2,0.9,4,1.8,6,2.8c1.9,1,3.7,2.2,5.2,3.5c1.5,1.3,2.8,2.9,3.7,4.6
				c0.9,1.7,1.4,3.8,1.4,6.1c0,2.4-0.4,4.6-1.3,6.6c-0.9,2.1-2.2,3.8-4,5.3c-1.8,1.5-4,2.7-6.7,3.6c-2.7,0.9-5.8,1.3-9.4,1.3
				c-1.6,0-3.3-0.1-5-0.4c-1.7-0.3-3.4-0.8-5.2-1.5c-1.7-0.7-3.5-1.8-5.2-3.1c-1.7-1.4-3.5-3.1-5.1-5.3l4.5-4.1
				c1.4,1.9,2.6,3.5,3.9,4.9c1.2,1.3,2.5,2.4,3.8,3.3c1.3,0.8,2.6,1.5,3.9,1.9C251.7,777.8,253.2,778,254.8,778z"/>
		</g>
		<g>
			<path d="M317,773.5c-1.5,2.6-3.5,4.6-5.9,6.1c-2.5,1.5-5.5,2.2-9.1,2.2c-1.9,0-3.5-0.3-4.9-0.9c-1.4-0.6-2.5-1.5-3.4-2.6
				c-0.9-1.1-1.6-2.5-2-4.1c-0.4-1.6-0.6-3.4-0.6-5.3v-39.3h-9.7v-2.8c3.1,0,5.7-0.6,7.7-1.7c2-1.1,3.7-2.6,4.9-4.6
				c1.3-1.9,2.3-4.1,3-6.7c0.7-2.5,1.4-5.2,1.9-8h3.2v19.1h12.5v4.7h-12.5v39.3c0,0.8,0.2,1.6,0.5,2.3s0.7,1.4,1.3,1.9
				c0.5,0.5,1.2,1,1.9,1.3c0.7,0.3,1.5,0.5,2.4,0.5c1.2,0,2.4-0.3,3.4-0.9c1-0.6,1.9-1.4,2.7-2.3L317,773.5z"/>
		</g>
		<g>
			<path d="M364.8,780.6h-11.1V773c-1.3,1-2.6,2-3.9,3.1c-1.3,1-2.6,2-4.1,2.9c-1.5,0.9-3.1,1.6-4.9,2.1c-1.8,0.5-3.9,0.8-6.2,0.8
				c-2.2,0-4.2-0.4-5.9-1.1c-1.8-0.7-3.3-1.7-4.5-2.9c-1.2-1.2-2.2-2.7-2.9-4.4c-0.7-1.7-1-3.5-1-5.5c0-2.4,0.5-4.5,1.4-6.5
				c1-1.9,2.3-3.6,3.9-5.2c1.6-1.5,3.6-2.9,5.8-4.1c2.2-1.2,4.5-2.2,7-3.2c2.5-0.9,5-1.8,7.6-2.5c2.6-0.7,5.2-1.4,7.7-2V741
				c0-2.5-0.3-4.7-0.8-6.4c-0.5-1.7-1.2-3.2-2.2-4.2c-0.9-1.1-2.1-1.8-3.4-2.3c-1.3-0.5-2.8-0.7-4.5-0.7c-1.9,0-3.4,0.2-4.6,0.7
				c-1.2,0.5-2.1,1.1-2.8,1.9c-0.7,0.8-1.1,1.7-1.4,2.7c-0.2,1-0.4,2.1-0.4,3.1c0,1-0.1,1.9-0.2,2.8c-0.2,0.9-0.4,1.7-0.9,2.4
				c-0.4,0.7-1,1.2-1.7,1.6c-0.7,0.4-1.6,0.6-2.7,0.6c-0.9,0-1.7-0.2-2.4-0.5c-0.7-0.3-1.3-0.8-1.8-1.4c-0.5-0.6-0.9-1.3-1.2-2.1
				c-0.3-0.8-0.4-1.7-0.4-2.6c0-1.8,0.6-3.5,1.8-5.1c1.2-1.6,2.8-3,4.9-4.1c2-1.2,4.4-2.1,7.2-2.8c2.7-0.7,5.6-1,8.6-1
				c3.7,0,6.8,0.4,9.3,1.1c2.5,0.7,4.6,1.7,6.1,3c1.6,1.3,2.7,2.8,3.4,4.7c0.7,1.8,1,3.9,1,6.1V780.6z M353.7,748.1
				c-1.6,0.5-3.2,1.1-5,1.8c-1.7,0.7-3.4,1.4-5,2.2c-1.6,0.8-3.2,1.7-4.7,2.6c-1.5,1-2.8,2-3.9,3c-1.1,1.1-2,2.2-2.7,3.4
				c-0.7,1.2-1,2.5-1,3.8c0,1.4,0.3,2.6,0.8,3.9c0.5,1.2,1.2,2.3,2,3.2c0.8,0.9,1.8,1.6,2.9,2.2c1.1,0.5,2.2,0.8,3.4,0.8
				c1.2,0,2.4-0.2,3.6-0.5c1.1-0.3,2.2-0.8,3.3-1.3c1.1-0.6,2.1-1.2,3.2-1.9c1.1-0.7,2.1-1.5,3.2-2.4V748.1z"/>
		</g>
		<g>
			<path d="M435,727.7v4.6h-10.6c1.1,1.5,2,3.2,2.6,5.1c0.7,1.9,1,3.8,1,5.6c0,2.9-0.6,5.5-1.9,7.9c-1.3,2.4-3.1,4.4-5.3,6.1
				c-2.3,1.7-5,3-8.2,4c-3.2,0.9-6.7,1.4-10.5,1.4c-1.4,0-2.8-0.1-4.3-0.4c-1.5-0.2-2.7-0.5-3.8-0.9c-1.1,0.9-2,1.9-2.7,3
				s-1.1,2.3-1.1,3.5c0,1.1,0.6,2,1.8,2.7c1.2,0.7,3,1.1,5.2,1.1l20.7,0.9c3.3,0.1,6,0.5,8.2,1.2c2.2,0.6,4,1.5,5.3,2.5
				c1.3,1.1,2.2,2.3,2.8,3.8c0.5,1.5,0.8,3.1,0.8,4.9c0,3.3-0.8,6.2-2.3,8.8c-1.5,2.6-3.7,4.9-6.5,6.7c-2.9,1.9-6.3,3.3-10.4,4.3
				c-4.1,1-8.7,1.5-13.9,1.5c-9.2,0-16.1-1-20.6-3.1c-4.6-2.1-6.8-4.8-6.8-8.3c0-1.5,0.4-3,1.1-4.4c0.8-1.4,1.7-2.8,2.9-4.1
				s2.5-2.5,4-3.7c1.5-1.2,2.9-2.3,4.3-3.5c-1-0.3-2-0.7-2.9-1.1c-0.9-0.4-1.6-1-2.3-1.5c-0.6-0.6-1.2-1.2-1.5-1.9
				c-0.4-0.7-0.6-1.4-0.6-2.2c0-1.1,0.3-2.3,0.9-3.5c0.6-1.2,1.4-2.3,2.4-3.5c1-1.1,2.2-2.1,3.6-3c1.4-0.9,2.8-1.7,4.4-2.3
				c-3.8-1.6-6.7-3.8-8.8-6.7c-2.1-2.9-3.2-6.1-3.2-9.8c0-2.7,0.6-5.3,1.9-7.8c1.3-2.4,3-4.6,5.2-6.4c2.2-1.8,4.8-3.3,7.8-4.3
				c3-1.1,6.2-1.6,9.6-1.6c1.7,0,3.3,0.1,4.9,0.3c1.6,0.2,3.1,0.5,4.5,0.9c1.4,0.4,2.6,0.8,3.7,1.3c1.1,0.5,1.9,1,2.5,1.6H435z
				 M390.2,780.1c-0.8,0.6-1.6,1.3-2.2,2.1c-0.6,0.8-1.2,1.6-1.6,2.4c-0.4,0.8-0.8,1.7-1,2.5c-0.2,0.8-0.3,1.7-0.3,2.4
				c0,1.2,0.4,2.4,1.3,3.6c0.9,1.1,2.2,2.1,3.9,3c1.7,0.9,3.9,1.6,6.6,2.1c2.6,0.5,5.7,0.8,9.2,0.8c3.7,0,7-0.3,10-0.9
				c2.9-0.6,5.4-1.4,7.5-2.3c2-1,3.6-2.1,4.7-3.2c1.1-1.2,1.6-2.4,1.6-3.6c0-2.5-1.2-4.3-3.7-5.5c-2.5-1.1-5.9-1.7-10.2-1.7
				c-2.7,0-5.4-0.1-8.1-0.2c-2.7-0.1-5.3-0.3-7.7-0.4c-2.4-0.2-4.4-0.4-6.2-0.5C392.2,780.4,391,780.3,390.2,780.1z M404,759.6
				c1.6,0,3.1-0.4,4.5-1.1c1.5-0.7,2.7-1.7,3.8-2.9c1.1-1.2,2-2.7,2.6-4.4c0.7-1.7,1-3.4,1-5.3c0-2.7-0.4-5.3-1.1-7.6
				c-0.7-2.3-1.8-4.4-3-6.1c-1.3-1.7-2.8-3.1-4.5-4.1c-1.7-1-3.5-1.5-5.4-1.5c-1.9,0-3.5,0.4-4.9,1.2c-1.4,0.8-2.5,1.8-3.4,3.2
				c-0.9,1.4-1.5,2.9-1.9,4.8c-0.4,1.8-0.6,3.8-0.6,5.9c0,2.5,0.3,4.9,0.9,7.1c0.6,2.2,1.5,4.1,2.6,5.7c1.1,1.6,2.5,2.9,4.1,3.8
				C400.4,759.2,402.1,759.6,404,759.6z"/>
		</g>
		<g>
			<path d="M445.4,724.8h11v10.5c1.1-1.6,2.2-3,3.5-4.5c1.2-1.4,2.5-2.7,3.9-3.7c1.4-1.1,2.7-1.9,4.2-2.5c1.4-0.6,2.9-0.9,4.4-0.9
				c1.2,0,2.3,0.2,3.4,0.5c1,0.4,1.9,0.8,2.7,1.5c0.8,0.6,1.4,1.3,1.8,2.1c0.4,0.8,0.7,1.7,0.7,2.6c0,1.8-0.6,3.2-1.7,4.1
				c-1.1,0.9-2.7,1.4-4.7,1.4c-1.2,0-2.2-0.1-3-0.4c-0.7-0.3-1.4-0.6-2-0.9c-0.6-0.3-1.2-0.6-1.8-0.9c-0.6-0.3-1.4-0.4-2.3-0.4
				c-0.7,0-1.5,0.2-2.2,0.6c-0.7,0.4-1.5,1-2.2,1.8c-0.7,0.8-1.5,1.7-2.3,2.8c-0.8,1.1-1.5,2.2-2.3,3.5v38.6h-11V724.8z"/>
		</g>
		<g>
			<path d="M529.1,780.6H518V773c-1.3,1-2.6,2-3.9,3.1c-1.3,1-2.6,2-4.1,2.9c-1.5,0.9-3.1,1.6-4.9,2.1c-1.8,0.5-3.9,0.8-6.2,0.8
				c-2.2,0-4.2-0.4-5.9-1.1c-1.8-0.7-3.3-1.7-4.5-2.9c-1.2-1.2-2.2-2.7-2.9-4.4c-0.7-1.7-1-3.5-1-5.5c0-2.4,0.5-4.5,1.4-6.5
				c1-1.9,2.3-3.6,3.9-5.2c1.6-1.5,3.6-2.9,5.8-4.1c2.2-1.2,4.5-2.2,7-3.2c2.5-0.9,5-1.8,7.6-2.5c2.6-0.7,5.2-1.4,7.7-2V741
				c0-2.5-0.3-4.7-0.8-6.4c-0.5-1.7-1.2-3.2-2.2-4.2c-0.9-1.1-2.1-1.8-3.4-2.3c-1.3-0.5-2.8-0.7-4.5-0.7c-1.9,0-3.4,0.2-4.6,0.7
				c-1.2,0.5-2.1,1.1-2.8,1.9c-0.7,0.8-1.1,1.7-1.4,2.7c-0.2,1-0.4,2.1-0.4,3.1c0,1-0.1,1.9-0.2,2.8c-0.2,0.9-0.4,1.7-0.9,2.4
				c-0.4,0.7-1,1.2-1.7,1.6c-0.7,0.4-1.6,0.6-2.7,0.6c-0.9,0-1.7-0.2-2.4-0.5c-0.7-0.3-1.3-0.8-1.8-1.4c-0.5-0.6-0.9-1.3-1.2-2.1
				c-0.3-0.8-0.4-1.7-0.4-2.6c0-1.8,0.6-3.5,1.8-5.1c1.2-1.6,2.8-3,4.9-4.1c2-1.2,4.4-2.1,7.2-2.8c2.7-0.7,5.6-1,8.6-1
				c3.7,0,6.8,0.4,9.3,1.1c2.5,0.7,4.6,1.7,6.1,3c1.6,1.3,2.7,2.8,3.4,4.7c0.7,1.8,1,3.9,1,6.1V780.6z M518,748.1
				c-1.6,0.5-3.2,1.1-5,1.8c-1.7,0.7-3.4,1.4-5,2.2c-1.6,0.8-3.2,1.7-4.7,2.6c-1.5,1-2.8,2-3.9,3c-1.1,1.1-2,2.2-2.7,3.4
				c-0.7,1.2-1,2.5-1,3.8c0,1.4,0.3,2.6,0.8,3.9c0.5,1.2,1.2,2.3,2,3.2c0.8,0.9,1.8,1.6,2.9,2.2c1.1,0.5,2.2,0.8,3.4,0.8
				c1.2,0,2.4-0.2,3.6-0.5c1.1-0.3,2.2-0.8,3.3-1.3c1.1-0.6,2.1-1.2,3.2-1.9c1.1-0.7,2.1-1.5,3.2-2.4V748.1z"/>
		</g>
		<g>
			<path d="M543.9,724.8H555v10.4c1.4-1.6,3-3,4.8-4.4c1.8-1.4,3.6-2.6,5.5-3.7c1.9-1.1,3.8-1.9,5.7-2.5c1.9-0.6,3.7-0.9,5.4-0.9
				c1.7,0,3.3,0.3,5,0.9c1.7,0.6,3.2,1.4,4.7,2.5c1.4,1.1,2.7,2.3,3.7,3.7c1,1.4,1.7,3,2,4.7c0.9-1.6,2.2-3.2,3.8-4.6
				c1.6-1.4,3.4-2.7,5.4-3.7c2-1.1,4.1-1.9,6.2-2.5c2.2-0.6,4.3-0.9,6.4-0.9c2.1,0,4.1,0.5,5.9,1.4c1.9,0.9,3.5,2.2,4.9,3.8
				c1.4,1.6,2.5,3.4,3.3,5.6c0.8,2.1,1.2,4.4,1.2,6.8v39.4h-11.1v-37.8c0-1.6-0.3-3-0.8-4.4c-0.5-1.4-1.3-2.6-2.2-3.7
				c-0.9-1.1-2-1.9-3.2-2.5c-1.2-0.6-2.5-0.9-3.8-0.9c-1.5,0-3.1,0.2-4.6,0.6c-1.6,0.4-3.1,1-4.5,1.7c-1.4,0.7-2.7,1.6-3.9,2.5
				c-1.2,1-2.1,2-2.8,3.1v41.4h-11.1v-37.8c0-1.6-0.3-3-0.8-4.4c-0.5-1.4-1.3-2.6-2.2-3.7c-0.9-1.1-2-1.9-3.2-2.5
				c-1.2-0.6-2.5-0.9-3.8-0.9c-1.4,0-2.9,0.2-4.4,0.6c-1.5,0.4-3,1-4.4,1.7c-1.4,0.7-2.8,1.6-4,2.5c-1.2,1-2.3,2-3.1,3v41.4h-11.1
				V724.8z"/>
		</g>
		<g>
			<path d="M647.1,730.7c0.8,0,1.6,0.2,2.3,0.5c0.7,0.3,1.3,0.7,1.9,1.2c0.5,0.5,1,1.1,1.3,1.8c0.3,0.7,0.5,1.4,0.5,2.2
				c0,0.8-0.2,1.5-0.5,2.3c-0.3,0.7-0.7,1.3-1.3,1.8c-0.5,0.5-1.2,0.9-1.9,1.2c-0.7,0.3-1.5,0.4-2.3,0.4s-1.6-0.1-2.3-0.4
				c-0.7-0.3-1.4-0.7-1.9-1.2c-0.5-0.5-1-1.1-1.3-1.8c-0.3-0.7-0.5-1.5-0.5-2.3c0-0.8,0.2-1.5,0.5-2.2c0.3-0.7,0.7-1.3,1.3-1.8
				c0.5-0.5,1.2-0.9,1.9-1.2S646.3,730.7,647.1,730.7z M647.1,770.8c0.8,0,1.6,0.1,2.3,0.4c0.7,0.3,1.3,0.7,1.9,1.2
				c0.5,0.5,1,1.1,1.3,1.8c0.3,0.7,0.5,1.4,0.5,2.2c0,0.8-0.2,1.5-0.5,2.3c-0.3,0.7-0.7,1.3-1.3,1.8c-0.5,0.5-1.2,0.9-1.9,1.2
				c-0.7,0.3-1.5,0.4-2.3,0.4s-1.6-0.1-2.3-0.4c-0.7-0.3-1.4-0.7-1.9-1.2c-0.5-0.5-1-1.1-1.3-1.8c-0.3-0.7-0.5-1.5-0.5-2.3
				c0-0.8,0.2-1.5,0.5-2.2c0.3-0.7,0.7-1.3,1.3-1.8c0.5-0.5,1.2-0.9,1.9-1.2C645.5,771,646.3,770.8,647.1,770.8z"/>
		</g>
		<g>
			<path d="M723.8,781.8c-4.3,0-8.2-0.7-11.8-2.2c-3.6-1.5-6.7-3.5-9.3-6.1c-2.6-2.6-4.7-5.6-6.1-9c-1.5-3.4-2.2-7.1-2.2-11
				c0-4.1,0.7-8,2.2-11.6c1.5-3.6,3.5-6.8,6.1-9.5c2.6-2.7,5.7-4.8,9.3-6.4c3.6-1.6,7.6-2.3,11.8-2.3c4.3,0,8.2,0.7,11.8,2.1
				c3.6,1.4,6.7,3.4,9.3,5.8c2.6,2.5,4.7,5.4,6.2,8.7c1.5,3.3,2.2,6.9,2.2,10.7c0,4.2-0.7,8.2-2.2,11.9c-1.5,3.7-3.5,7-6.2,9.8
				c-2.6,2.8-5.7,5-9.3,6.6C732,781,728.1,781.8,723.8,781.8z M725.9,777.7c2.2,0,4.2-0.6,6-1.7c1.8-1.1,3.4-2.6,4.7-4.5
				c1.3-1.9,2.4-4.1,3.1-6.6c0.7-2.5,1.1-5.2,1.1-8c0-4.1-0.3-7.8-1-11.3c-0.7-3.5-1.8-6.6-3.4-9.2c-1.6-2.6-3.6-4.7-6.1-6.2
				c-2.5-1.5-5.6-2.3-9.2-2.3c-1.9,0-3.7,0.5-5.4,1.6c-1.7,1.1-3.3,2.5-4.6,4.4c-1.3,1.9-2.4,4.1-3.2,6.5c-0.8,2.5-1.2,5.1-1.2,7.9
				c0,4.1,0.4,7.9,1.3,11.4c0.9,3.6,2.1,6.7,3.7,9.3c1.6,2.6,3.6,4.7,6,6.3C720.2,776.9,722.9,777.7,725.9,777.7z"/>
		</g>
		<g>
			<path d="M775.5,780.6h-11.1v-81.2l7.9-3.2h3.2V780.6z"/>
		</g>
		<g>
			<path d="M844.3,727.7v4.6h-10.6c1.1,1.5,2,3.2,2.6,5.1c0.7,1.9,1,3.8,1,5.6c0,2.9-0.6,5.5-1.9,7.9c-1.3,2.4-3.1,4.4-5.3,6.1
				c-2.3,1.7-5,3-8.2,4c-3.2,0.9-6.7,1.4-10.5,1.4c-1.4,0-2.8-0.1-4.3-0.4c-1.5-0.2-2.7-0.5-3.8-0.9c-1.1,0.9-2,1.9-2.7,3
				s-1.1,2.3-1.1,3.5c0,1.1,0.6,2,1.8,2.7c1.2,0.7,3,1.1,5.2,1.1l20.7,0.9c3.3,0.1,6,0.5,8.2,1.2c2.2,0.6,4,1.5,5.3,2.5
				c1.3,1.1,2.2,2.3,2.8,3.8c0.5,1.5,0.8,3.1,0.8,4.9c0,3.3-0.8,6.2-2.3,8.8c-1.5,2.6-3.7,4.9-6.5,6.7c-2.9,1.9-6.3,3.3-10.4,4.3
				c-4.1,1-8.7,1.5-13.9,1.5c-9.2,0-16.1-1-20.6-3.1c-4.6-2.1-6.8-4.8-6.8-8.3c0-1.5,0.4-3,1.1-4.4c0.8-1.4,1.7-2.8,2.9-4.1
				s2.5-2.5,4-3.7c1.5-1.2,2.9-2.3,4.3-3.5c-1-0.3-2-0.7-2.9-1.1c-0.9-0.4-1.6-1-2.3-1.5s-1.2-1.2-1.5-1.9c-0.4-0.7-0.6-1.4-0.6-2.2
				c0-1.1,0.3-2.3,0.9-3.5c0.6-1.2,1.4-2.3,2.4-3.5c1-1.1,2.2-2.1,3.6-3c1.4-0.9,2.8-1.7,4.4-2.3c-3.8-1.6-6.7-3.8-8.8-6.7
				c-2.1-2.9-3.2-6.1-3.2-9.8c0-2.7,0.6-5.3,1.9-7.8c1.3-2.4,3-4.6,5.2-6.4c2.2-1.8,4.8-3.3,7.8-4.3c3-1.1,6.2-1.6,9.6-1.6
				c1.7,0,3.3,0.1,4.9,0.3c1.6,0.2,3.1,0.5,4.5,0.9c1.4,0.4,2.6,0.8,3.7,1.3c1.1,0.5,1.9,1,2.5,1.6H844.3z M799.6,780.1
				c-0.8,0.6-1.6,1.3-2.2,2.1c-0.6,0.8-1.2,1.6-1.6,2.4c-0.4,0.8-0.8,1.7-1,2.5c-0.2,0.8-0.3,1.7-0.3,2.4c0,1.2,0.4,2.4,1.3,3.6
				c0.9,1.1,2.2,2.1,3.9,3c1.7,0.9,3.9,1.6,6.6,2.1c2.6,0.5,5.7,0.8,9.2,0.8c3.7,0,7-0.3,10-0.9c2.9-0.6,5.4-1.4,7.5-2.3
				c2-1,3.6-2.1,4.7-3.2c1.1-1.2,1.6-2.4,1.6-3.6c0-2.5-1.2-4.3-3.7-5.5c-2.5-1.1-5.9-1.7-10.2-1.7c-2.7,0-5.4-0.1-8.1-0.2
				c-2.7-0.1-5.3-0.3-7.7-0.4c-2.4-0.2-4.4-0.4-6.2-0.5C801.6,780.4,800.3,780.3,799.6,780.1z M813.4,759.6c1.6,0,3.1-0.4,4.5-1.1
				c1.5-0.7,2.7-1.7,3.8-2.9c1.1-1.2,2-2.7,2.6-4.4c0.7-1.7,1-3.4,1-5.3c0-2.7-0.4-5.3-1.1-7.6c-0.7-2.3-1.8-4.4-3-6.1
				c-1.3-1.7-2.8-3.1-4.5-4.1c-1.7-1-3.5-1.5-5.4-1.5c-1.9,0-3.5,0.4-4.9,1.2c-1.4,0.8-2.5,1.8-3.4,3.2c-0.9,1.4-1.5,2.9-1.9,4.8
				c-0.4,1.8-0.6,3.8-0.6,5.9c0,2.5,0.3,4.9,0.9,7.1s1.5,4.1,2.6,5.7c1.1,1.6,2.5,2.9,4.1,3.8C809.8,759.2,811.5,759.6,813.4,759.6z
				"/>
		</g>
		<g>
			<path d="M895.8,780.6h-11.1V773c-1.3,1-2.6,2-3.9,3.1c-1.3,1-2.6,2-4.1,2.9c-1.5,0.9-3.1,1.6-4.9,2.1c-1.8,0.5-3.9,0.8-6.2,0.8
				c-2.2,0-4.2-0.4-5.9-1.1c-1.8-0.7-3.3-1.7-4.5-2.9c-1.2-1.2-2.2-2.7-2.9-4.4c-0.7-1.7-1-3.5-1-5.5c0-2.4,0.5-4.5,1.4-6.5
				c1-1.9,2.3-3.6,3.9-5.2c1.6-1.5,3.6-2.9,5.8-4.1c2.2-1.2,4.5-2.2,7-3.2c2.5-0.9,5-1.8,7.6-2.5c2.6-0.7,5.2-1.4,7.7-2V741
				c0-2.5-0.3-4.7-0.8-6.4c-0.5-1.7-1.2-3.2-2.2-4.2c-0.9-1.1-2.1-1.8-3.4-2.3c-1.3-0.5-2.8-0.7-4.5-0.7c-1.9,0-3.4,0.2-4.6,0.7
				c-1.2,0.5-2.1,1.1-2.8,1.9c-0.7,0.8-1.1,1.7-1.4,2.7c-0.2,1-0.4,2.1-0.4,3.1c0,1-0.1,1.9-0.2,2.8c-0.2,0.9-0.4,1.7-0.9,2.4
				c-0.4,0.7-1,1.2-1.7,1.6c-0.7,0.4-1.6,0.6-2.7,0.6c-0.9,0-1.7-0.2-2.4-0.5c-0.7-0.3-1.3-0.8-1.8-1.4c-0.5-0.6-0.9-1.3-1.2-2.1
				c-0.3-0.8-0.4-1.7-0.4-2.6c0-1.8,0.6-3.5,1.8-5.1c1.2-1.6,2.8-3,4.9-4.1c2-1.2,4.4-2.1,7.2-2.8c2.7-0.7,5.6-1,8.6-1
				c3.7,0,6.8,0.4,9.3,1.1c2.5,0.7,4.6,1.7,6.1,3c1.6,1.3,2.7,2.8,3.4,4.7c0.7,1.8,1,3.9,1,6.1V780.6z M884.7,748.1
				c-1.6,0.5-3.2,1.1-5,1.8c-1.7,0.7-3.4,1.4-5,2.2c-1.6,0.8-3.2,1.7-4.7,2.6c-1.5,1-2.8,2-3.9,3c-1.1,1.1-2,2.2-2.7,3.4
				c-0.7,1.2-1,2.5-1,3.8c0,1.4,0.3,2.6,0.8,3.9c0.5,1.2,1.2,2.3,2,3.2c0.8,0.9,1.8,1.6,2.9,2.2c1.1,0.5,2.2,0.8,3.4,0.8
				c1.2,0,2.4-0.2,3.6-0.5c1.1-0.3,2.2-0.8,3.3-1.3c1.1-0.6,2.1-1.2,3.2-1.9c1.1-0.7,2.1-1.5,3.2-2.4V748.1z"/>
		</g>
		<g>
			<path d="M916.1,770.8c0.8,0,1.6,0.1,2.3,0.4c0.7,0.3,1.3,0.7,1.9,1.2c0.5,0.5,1,1.1,1.3,1.8c0.3,0.7,0.5,1.4,0.5,2.2
				c0,0.8-0.2,1.5-0.5,2.3c-0.3,0.7-0.7,1.3-1.3,1.8c-0.5,0.5-1.2,0.9-1.9,1.2c-0.7,0.3-1.5,0.4-2.3,0.4s-1.6-0.1-2.3-0.4
				c-0.7-0.3-1.4-0.7-1.9-1.2c-0.5-0.5-1-1.1-1.3-1.8c-0.3-0.7-0.5-1.5-0.5-2.3c0-0.8,0.2-1.5,0.5-2.2c0.3-0.7,0.7-1.3,1.3-1.8
				c0.5-0.5,1.2-0.9,1.9-1.2C914.5,771,915.2,770.8,916.1,770.8z"/>
		</g>
		<g>
			<path d="M934.5,724.8h11.1v11.4c1.1-1.4,2.3-2.9,3.7-4.3c1.4-1.5,2.9-2.8,4.5-4c1.7-1.2,3.5-2.2,5.5-3c2-0.8,4.2-1.2,6.6-1.2
				c3.3,0,6.3,0.7,9,2.1c2.7,1.4,5,3.3,6.9,5.6c1.9,2.4,3.4,5.2,4.4,8.3c1,3.2,1.6,6.6,1.6,10.2c0,4.6-0.6,8.9-1.9,12.7
				c-1.3,3.9-3.1,7.3-5.5,10.1c-2.4,2.8-5.2,5.1-8.6,6.6c-3.4,1.6-7.1,2.4-11.3,2.4c-1.6,0-3-0.1-4.3-0.2c-1.3-0.2-2.6-0.4-3.8-0.7
				s-2.3-0.8-3.5-1.3c-1.1-0.5-2.2-1.1-3.4-1.9v26.4h-11.1V724.8z M945.5,765.5c0,1.7,0.4,3.2,1.1,4.7c0.7,1.5,1.7,2.8,3.1,3.9
				c1.3,1.1,2.9,2,4.7,2.6c1.8,0.6,3.8,1,6,1c2.1,0,4-0.5,5.8-1.6c1.8-1.1,3.4-2.6,4.8-4.5c1.4-1.9,2.4-4.2,3.2-6.9
				c0.8-2.7,1.2-5.7,1.2-9c0-4.1-0.4-7.7-1.1-10.8s-1.7-5.6-3-7.7c-1.3-2-2.8-3.6-4.6-4.6c-1.8-1-3.7-1.5-5.8-1.5
				c-1.6,0-3.2,0.3-4.6,0.8c-1.5,0.5-2.9,1.2-4.2,2s-2.5,1.8-3.6,2.9c-1.1,1.1-2.1,2.2-3,3.4V765.5z"/>
		</g>
		<g>
			<path d="M1004,696.3c0.9,0,1.7,0.1,2.5,0.4c0.8,0.3,1.5,0.7,2,1.2c0.6,0.5,1,1.1,1.4,1.8c0.3,0.7,0.5,1.4,0.5,2.2
				c0,0.8-0.2,1.5-0.5,2.2c-0.3,0.7-0.8,1.3-1.4,1.8c-0.6,0.5-1.2,0.9-2,1.2c-0.8,0.3-1.6,0.4-2.5,0.4c-0.9,0-1.7-0.1-2.4-0.4
				c-0.8-0.3-1.4-0.7-2-1.2c-0.6-0.5-1-1.1-1.4-1.8c-0.3-0.7-0.5-1.4-0.5-2.2c0-0.8,0.2-1.5,0.5-2.2c0.3-0.7,0.8-1.3,1.4-1.8
				c0.6-0.5,1.2-0.9,2-1.2C1002.3,696.4,1003.1,696.3,1004,696.3z M998.6,726.9l7.8-3.2h3.2v56.9h-11V726.9z"/>
		</g>
		<g>
			<path d="M1047.8,781.8c-3.8,0-7.3-0.7-10.6-2.1c-3.3-1.4-6.2-3.3-8.7-5.8c-2.5-2.4-4.4-5.3-5.9-8.6c-1.4-3.3-2.2-6.8-2.2-10.5
				c0-4.5,0.7-8.6,2-12.4c1.3-3.8,3.2-7.1,5.6-9.9c2.4-2.8,5.3-4.9,8.6-6.5c3.4-1.6,7.1-2.3,11.2-2.3c3.7,0,7,0.6,10.1,1.9
				c3,1.3,5.7,3,7.8,5.2c2.2,2.2,3.9,4.7,5.1,7.5c1.2,2.8,1.8,5.8,1.8,8.9h-41.6c0,3.7,0.5,7.2,1.5,10.4c1,3.2,2.3,6,4.1,8.3
				c1.7,2.3,3.8,4.1,6.2,5.5c2.4,1.3,5.1,2,7.9,2c2.4,0,4.7-0.4,7-1.2c2.2-0.8,4.2-1.8,6-3.1c1.8-1.3,3.3-2.7,4.6-4.4
				c1.3-1.6,2.2-3.3,2.7-5.1l3.2,1.4c-0.8,2.9-2.1,5.6-3.9,8.1c-1.8,2.5-3.9,4.7-6.2,6.6c-2.4,1.9-5,3.3-7.8,4.4
				C1053.5,781.3,1050.7,781.8,1047.8,781.8z M1058.9,742.7c0-2.1-0.4-4.1-1.1-5.9c-0.7-1.8-1.8-3.4-3.1-4.7
				c-1.3-1.3-2.8-2.4-4.6-3.1c-1.7-0.8-3.6-1.1-5.6-1.1c-1.7,0-3.3,0.4-4.8,1.1c-1.5,0.8-2.9,1.8-4.1,3.1c-1.2,1.3-2.2,2.9-3,4.7
				c-0.8,1.8-1.3,3.8-1.4,5.9L1058.9,742.7z"/>
		</g>
		<g>
			<path d="M1124.1,775.2c-1.3,1-2.7,2-4.2,2.8c-1.5,0.8-3,1.5-4.6,2.1s-3.2,1-4.9,1.3c-1.6,0.3-3.2,0.5-4.8,0.5
				c-3.3,0-6.4-0.8-9.2-2.3c-2.9-1.5-5.3-3.6-7.5-6.2s-3.8-5.6-5-9c-1.2-3.4-1.8-7-1.8-10.9c0-2.5,0.4-5,1.1-7.5
				c0.7-2.5,1.7-4.8,3-7c1.3-2.2,2.8-4.2,4.6-6.1c1.8-1.9,3.8-3.5,5.9-4.9c2.2-1.4,4.5-2.4,7-3.2c2.5-0.8,5.1-1.1,7.8-1.1
				c2.7,0,5.1,0.5,7.1,1.4c2,1,3.9,2.2,5.7,3.8v-29.4l7.7-3.2h3.3v85.5h-11V775.2z M1124.1,742.5c0-2.2-0.4-4.2-1.2-6
				c-0.8-1.8-1.9-3.4-3.2-4.6c-1.3-1.3-2.8-2.3-4.5-3c-1.7-0.7-3.3-1.1-5-1.1c-2.2,0-4.3,0.6-6.2,1.7c-1.9,1.1-3.6,2.6-5,4.6
				c-1.4,2-2.6,4.3-3.4,7.1c-0.8,2.8-1.2,5.8-1.2,9.1c0,3.5,0.5,6.8,1.4,9.9c0.9,3.1,2.2,5.8,3.8,8.1c1.6,2.3,3.5,4.1,5.6,5.5
				c2.1,1.3,4.4,2,6.8,2c1.2,0,2.3-0.2,3.5-0.5c1.2-0.3,2.3-0.7,3.3-1.2c1.1-0.5,2.1-1.1,3-1.8c0.9-0.7,1.7-1.4,2.4-2.2V742.5z"/>
		</g>
		<g>
			<path d="M1148.1,724.8h11v10.5c1.1-1.6,2.2-3,3.5-4.5c1.2-1.4,2.5-2.7,3.9-3.7c1.4-1.1,2.7-1.9,4.2-2.5c1.4-0.6,2.9-0.9,4.4-0.9
				c1.2,0,2.3,0.2,3.4,0.5c1,0.4,1.9,0.8,2.7,1.5c0.8,0.6,1.4,1.3,1.8,2.1c0.4,0.8,0.7,1.7,0.7,2.6c0,1.8-0.6,3.2-1.7,4.1
				c-1.1,0.9-2.7,1.4-4.7,1.4c-1.2,0-2.2-0.1-3-0.4c-0.7-0.3-1.4-0.6-2-0.9c-0.6-0.3-1.2-0.6-1.8-0.9c-0.6-0.3-1.4-0.4-2.3-0.4
				c-0.7,0-1.5,0.2-2.2,0.6c-0.7,0.4-1.5,1-2.2,1.8c-0.7,0.8-1.5,1.7-2.3,2.8c-0.8,1.1-1.5,2.2-2.3,3.5v38.6h-11V724.8z"/>
		</g>
		<g>
			<path d="M1231.9,780.6h-11.1V773c-1.3,1-2.6,2-3.9,3.1c-1.3,1-2.6,2-4.1,2.9c-1.5,0.9-3.1,1.6-4.9,2.1c-1.8,0.5-3.9,0.8-6.2,0.8
				c-2.2,0-4.2-0.4-5.9-1.1c-1.8-0.7-3.3-1.7-4.5-2.9c-1.2-1.2-2.2-2.7-2.9-4.4c-0.7-1.7-1-3.5-1-5.5c0-2.4,0.5-4.5,1.4-6.5
				c1-1.9,2.3-3.6,3.9-5.2c1.6-1.5,3.6-2.9,5.8-4.1c2.2-1.2,4.5-2.2,7-3.2c2.5-0.9,5-1.8,7.6-2.5c2.6-0.7,5.2-1.4,7.7-2V741
				c0-2.5-0.3-4.7-0.8-6.4c-0.5-1.7-1.2-3.2-2.2-4.2c-0.9-1.1-2.1-1.8-3.4-2.3c-1.3-0.5-2.8-0.7-4.5-0.7c-1.9,0-3.4,0.2-4.6,0.7
				c-1.2,0.5-2.1,1.1-2.8,1.9c-0.7,0.8-1.1,1.7-1.4,2.7c-0.2,1-0.4,2.1-0.4,3.1c0,1-0.1,1.9-0.2,2.8c-0.2,0.9-0.4,1.7-0.9,2.4
				c-0.4,0.7-1,1.2-1.7,1.6c-0.7,0.4-1.6,0.6-2.7,0.6c-0.9,0-1.7-0.2-2.4-0.5c-0.7-0.3-1.3-0.8-1.8-1.4c-0.5-0.6-0.9-1.3-1.2-2.1
				c-0.3-0.8-0.4-1.7-0.4-2.6c0-1.8,0.6-3.5,1.8-5.1c1.2-1.6,2.8-3,4.9-4.1c2-1.2,4.4-2.1,7.2-2.8c2.7-0.7,5.6-1,8.6-1
				c3.7,0,6.8,0.4,9.3,1.1c2.5,0.7,4.6,1.7,6.1,3c1.6,1.3,2.7,2.8,3.4,4.7c0.7,1.8,1,3.9,1,6.1V780.6z M1220.8,748.1
				c-1.6,0.5-3.2,1.1-5,1.8c-1.7,0.7-3.4,1.4-5,2.2c-1.6,0.8-3.2,1.7-4.7,2.6c-1.5,1-2.8,2-3.9,3c-1.1,1.1-2,2.2-2.7,3.4
				c-0.7,1.2-1,2.5-1,3.8c0,1.4,0.3,2.6,0.8,3.9c0.5,1.2,1.2,2.3,2,3.2c0.8,0.9,1.8,1.6,2.9,2.2c1.1,0.5,2.2,0.8,3.4,0.8
				c1.2,0,2.4-0.2,3.6-0.5c1.1-0.3,2.2-0.8,3.3-1.3c1.1-0.6,2.1-1.2,3.2-1.9c1.1-0.7,2.1-1.5,3.2-2.4V748.1z"/>
		</g>
		<g>
			<path d="M1257.7,735c3.4-3.8,6.9-6.6,10.5-8.5c3.6-1.9,7.3-2.8,11.1-2.8c1.9,0,3.8,0.4,5.5,1.3c1.7,0.9,3.2,2.1,4.5,3.6
				c1.3,1.5,2.3,3.3,3,5.4c0.7,2.1,1.1,4.3,1.1,6.6v40h-11.1v-38.2c0-3.7-0.8-6.5-2.5-8.4c-1.7-1.9-3.8-2.9-6.4-2.9
				c-1.2,0-2.4,0.2-3.7,0.6c-1.3,0.4-2.6,0.9-4,1.6c-1.4,0.7-2.7,1.6-4,2.5c-1.3,1-2.6,2.1-3.9,3.3v41.3h-11.1v-81.2l7.9-3.2h3.2
				V735z"/>
		</g>
		<g>
			<path d="M1312.3,696.3c0.9,0,1.7,0.1,2.5,0.4c0.8,0.3,1.5,0.7,2,1.2c0.6,0.5,1,1.1,1.4,1.8c0.3,0.7,0.5,1.4,0.5,2.2
				c0,0.8-0.2,1.5-0.5,2.2c-0.3,0.7-0.8,1.3-1.4,1.8c-0.6,0.5-1.2,0.9-2,1.2c-0.8,0.3-1.6,0.4-2.5,0.4c-0.9,0-1.7-0.1-2.4-0.4
				c-0.8-0.3-1.4-0.7-2-1.2c-0.6-0.5-1-1.1-1.4-1.8c-0.3-0.7-0.5-1.4-0.5-2.2c0-0.8,0.2-1.5,0.5-2.2c0.3-0.7,0.8-1.3,1.4-1.8
				c0.6-0.5,1.2-0.9,2-1.2C1310.6,696.4,1311.4,696.3,1312.3,696.3z M1306.9,726.9l7.8-3.2h3.2v56.9h-11V726.9z"/>
		</g>
		<g>
			<path d="M1361.1,773.5c-1.5,2.6-3.5,4.6-5.9,6.1c-2.5,1.5-5.5,2.2-9.1,2.2c-1.9,0-3.5-0.3-4.9-0.9c-1.4-0.6-2.5-1.5-3.4-2.6
				c-0.9-1.1-1.6-2.5-2-4.1c-0.4-1.6-0.6-3.4-0.6-5.3v-39.3h-9.7v-2.8c3.1,0,5.7-0.6,7.7-1.7c2-1.1,3.7-2.6,4.9-4.6
				c1.3-1.9,2.3-4.1,3-6.7c0.7-2.5,1.4-5.2,1.9-8h3.2v19.1h12.5v4.7h-12.5v39.3c0,0.8,0.2,1.6,0.5,2.3s0.7,1.4,1.3,1.9
				c0.5,0.5,1.2,1,1.9,1.3c0.7,0.3,1.5,0.5,2.4,0.5c1.2,0,2.4-0.3,3.4-0.9c1-0.6,1.9-1.4,2.7-2.3L1361.1,773.5z"/>
		</g>
		<g>
			<path d="M1408.9,780.6h-11.1V773c-1.3,1-2.6,2-3.9,3.1c-1.3,1-2.6,2-4.1,2.9c-1.5,0.9-3.1,1.6-4.9,2.1c-1.8,0.5-3.9,0.8-6.2,0.8
				c-2.2,0-4.2-0.4-5.9-1.1c-1.8-0.7-3.3-1.7-4.5-2.9c-1.2-1.2-2.2-2.7-2.9-4.4c-0.7-1.7-1-3.5-1-5.5c0-2.4,0.5-4.5,1.4-6.5
				c1-1.9,2.3-3.6,3.9-5.2c1.6-1.5,3.6-2.9,5.8-4.1c2.2-1.2,4.5-2.2,7-3.2c2.5-0.9,5-1.8,7.6-2.5c2.6-0.7,5.2-1.4,7.7-2V741
				c0-2.5-0.3-4.7-0.8-6.4c-0.5-1.7-1.2-3.2-2.2-4.2c-0.9-1.1-2.1-1.8-3.4-2.3c-1.3-0.5-2.8-0.7-4.5-0.7c-1.9,0-3.4,0.2-4.6,0.7
				c-1.2,0.5-2.1,1.1-2.8,1.9c-0.7,0.8-1.1,1.7-1.4,2.7c-0.2,1-0.4,2.1-0.4,3.1c0,1-0.1,1.9-0.2,2.8c-0.2,0.9-0.4,1.7-0.9,2.4
				c-0.4,0.7-1,1.2-1.7,1.6c-0.7,0.4-1.6,0.6-2.7,0.6c-0.9,0-1.7-0.2-2.4-0.5c-0.7-0.3-1.3-0.8-1.8-1.4c-0.5-0.6-0.9-1.3-1.2-2.1
				c-0.3-0.8-0.4-1.7-0.4-2.6c0-1.8,0.6-3.5,1.8-5.1c1.2-1.6,2.8-3,4.9-4.1c2-1.2,4.4-2.1,7.2-2.8c2.7-0.7,5.6-1,8.6-1
				c3.7,0,6.8,0.4,9.3,1.1c2.5,0.7,4.6,1.7,6.1,3c1.6,1.3,2.7,2.8,3.4,4.7c0.7,1.8,1,3.9,1,6.1V780.6z M1397.7,748.1
				c-1.6,0.5-3.2,1.1-5,1.8c-1.7,0.7-3.4,1.4-5,2.2c-1.6,0.8-3.2,1.7-4.7,2.6c-1.5,1-2.8,2-3.9,3c-1.1,1.1-2,2.2-2.7,3.4
				c-0.7,1.2-1,2.5-1,3.8c0,1.4,0.3,2.6,0.8,3.9c0.5,1.2,1.2,2.3,2,3.2c0.8,0.9,1.8,1.6,2.9,2.2c1.1,0.5,2.2,0.8,3.4,0.8
				c1.2,0,2.4-0.2,3.6-0.5c1.1-0.3,2.2-0.8,3.3-1.3c1.1-0.6,2.1-1.2,3.2-1.9c1.1-0.7,2.1-1.5,3.2-2.4V748.1z"/>
		</g>
	</g>
	<g>
		<g>
			<path d="M551.1,444l-13,15.2h-6.7l9.4-15.2H551.1z"/>
		</g>
	</g>
	<g>
		<g>
			<path d="M348.1,311l-13,15.2h-6.7l9.4-15.2H348.1z"/>
		</g>
	</g>
</g>
</svg>
