<svg xmlns="http://www.w3.org/2000/svg" viewBox="0 0 550.7 1228.88"><defs><style>.cls-1,.cls-2,.cls-3{fill:#10203b;}.cls-1{opacity:0.3;}.cls-2{opacity:0.24;}.cls-4,.cls-5{fill:none;}.cls-5{stroke:#10203b;stroke-miterlimit:10;}</style></defs><g id="Layer_2" data-name="Layer 2"><g id="Ear"><path class="cls-1" d="M350.46,672.37s-10.76-19.52-10.26-27.76,8-39.59-9.25-47.5C317.58,591,293,608.23,287.24,628.67c0,0,18.75-29.1,35.58-22.64,0,0,10.05.31,8.44,19.73s2,27.09,6.46,31.94,11.42,11,12.13,16.43"/><path class="cls-2" d="M143.23,490s-21-514,406.1-483.19l.06,89.1S209.44,61.63,143.23,490Z"/><path class="cls-3" d="M285.52,588.57a2.37,2.37,0,0,0,1.85-.11c.71-.35,17.68-8.76,32.52-27.63,13.71-17.42,27.94-47.35,17.93-91-.11-.47-11.83-46.93-64-43.13-17.95,1.31-35.62,16-47.24,39.27-8.36,16.75-17.31,45.39-12.45,86.83,4.63,39.43,20.65,80.68,47.61,122.6a2.44,2.44,0,0,0,2,1.12,2.34,2.34,0,0,0,1.31-.39,2.43,2.43,0,0,0,.73-3.35C194.2,561.51,221,488.05,230.91,468.2c10.69-21.42,27.28-35.44,43.25-36.6,48-3.57,58.5,37.65,58.93,39.41,9.55,41.65-3.93,70.16-16.95,86.74a101.17,101.17,0,0,1-30.94,26.38,2.44,2.44,0,0,0-1.12,3.25A2.72,2.72,0,0,0,285.52,588.57Z"/><path class="cls-3" d="M343.4,628.59c.23-2.2.45-4.47.63-6.79,1.78-22.36-11-26.65-11-26.66-11.23-4.82-23.32-.6-35,12.2a97.92,97.92,0,0,0-13.91,20.18,2.44,2.44,0,0,0,1.1,3.25,2.42,2.42,0,0,0,3.25-1.1c.2-.4,20.27-39.64,42.81-30,.1,0,9.36,3.56,7.92,21.75-.18,2.28-.4,4.51-.63,6.77-1.18,11.76-2.2,21.92,3.8,32.48,6.76,11.92,9.2,21.39,7.05,27.42-1.13,3.15-3.51,5.38-7.29,6.84a2.33,2.33,0,0,0-1.34,1.27,2.45,2.45,0,0,0-.05,1.86,2.41,2.41,0,0,0,2.26,1.56,2.11,2.11,0,0,0,.87-.17c5.11-2,8.51-5.23,10.12-9.73,2.69-7.48.2-18.07-7.38-31.44C341.35,649.05,342.28,639.6,343.4,628.59Z"/><path class="cls-3" d="M285.26,389.57c-.35,0-35.64.37-62,32.49C192.91,459,186.1,520.89,203,606c.05.27,5.28,28.42,22,61.06,15.52,30.33,44.46,71.18,94.14,93.54a2.4,2.4,0,0,0,1,.21,2.45,2.45,0,0,0,2.22-1.42,2.45,2.45,0,0,0-1.23-3.22c-92.49-41.61-113.17-150-113.36-151.08C191.16,521.48,197.61,461,226.92,425.2c24.8-30.27,58-30.78,58.33-30.78,34.55,0,59.83,13,75.12,38.52,22.83,38.15,16.72,94.17,3.77,118.31a34.73,34.73,0,0,1-3.23,4.89c-8.83,11.52-13.06,16.4-14,17.08a2.38,2.38,0,0,0-1,1.58,2.44,2.44,0,0,0,.42,1.81,2.4,2.4,0,0,0,1.56,1,2.44,2.44,0,0,0,1.81-.42c1.75-1.26,6.81-7.34,15-18.06a41.43,41.43,0,0,0,3.65-5.56c13.49-25.12,19.87-83.42-3.88-123.09C348.31,403.32,321.64,389.57,285.26,389.57Z"/><path class="cls-2" d="M286.46,1032h0a694.52,694.52,0,0,1-37.58,174.73l-7.68,21.65,130.32-1.58-3.91-141.38a385.87,385.87,0,0,0-24.38-119c-13.79-36.59-36.18-83.08-61.63-124.67-94.84-154.9-121.51-255.49-121.51-255.49-2.44,30.6,75,239.31,98.42,297.06C258.51,883.34,296.55,972.51,286.46,1032Z"/><path class="cls-3" d="M549.39,945c-71.1-34.73-117-81.56-143-115-28.75-36.89-40.31-65.89-40.42-66.19a1.62,1.62,0,0,0-2.1-.92,1.64,1.64,0,0,0-.92,2.1c.11.3,11.8,29.65,40.79,66.88,26.44,34,73.12,81.65,145.66,116.73V945Z"/><path class="cls-2" d="M366,763.75s73.88,117.47,183.44,137.71v46.46a548.13,548.13,0,0,1-82.55-51.42C414.9,856.89,363,764.93,363,764.93Z"/><path class="cls-2" d="M323.11,521.78c11.61-8.1,2.22-20.76-11.62-17.82-11.61,2.47-34.05,10.06-42.81,28.37-16.3,34.1,0,105.44,0,105.44s-15.44-65,22.29-101.61C307.12,520.5,318.33,525.12,323.11,521.78Z"/><path class="cls-2" d="M294.9,449.75c17-1.37,19.27-26.07-21.7-20.37-13.15,1.83-36.92,14.18-47.35,39.16-35.48,85,23.69,180.92,23.69,180.92s-46.08-84-10.66-156.09C248.83,473.18,261.44,452.49,294.9,449.75Z"/><path class="cls-2" d="M298.59,413.56c-11.35-5.84-8.44-25.69,9.13-22,14.74,3.07,50.81,24.51,59,48.5,33.87,99.26-18.49,135.17-18.49,135.17s47.69-79.49-9.67-140.1C319.1,414.53,305.15,416.94,298.59,413.56Z"/><path class="cls-3" d="M322.06,508.89a2.39,2.39,0,0,0,3-1.39,2.43,2.43,0,0,0-1.34-3.15c-2.07-.83-26.8-3.58-45.48,12.93-24.07,21.28-28,63.36-11.72,125.08a2.42,2.42,0,0,0,3,1.73,2.44,2.44,0,0,0,1.72-3c-15.07-57.07-12.21-98,8.26-118.34C297.33,505,321.91,508.86,322.06,508.89Z"/><path class="cls-3" d="M549.54,4.84C488.88-5.95,427.35,3.4,366.68,32.61c-90.06,43.36-159.4,123.88-190.25,221-23.16,72.89-46.49,184.33-26,301.24,18,102.63,50.14,184.79,78.52,257.26,29.49,75.29,59.71,140.48,55,205.57-3.14,43.1-17.6,120.07-33.31,169.62l-11.16,41.13h4.32l11.35-41.22c16.31-50.07,30.54-126.43,33.65-169.53,4.77-66-25.62-131.59-55.28-207.35C205.13,738,173.05,656.12,155.17,554,134.88,438,158.05,327.39,181.06,255,211.5,159.24,279.93,79.75,368.78,37,428.71,8.14,489.43-1,549.25,9.72l1,.18V5Z"/><line class="cls-4" x1="0.5" y1="444.52" x2="0.5" y2="551.55"/><rect class="cls-5" x="0.5" y="0.5" width="549.7" height="1227.88"/></g></g></svg>