<svg xmlns="http://www.w3.org/2000/svg" viewBox="0 0 549.7 1227.88"><defs><style>.cls-1,.cls-2,.cls-3{fill:#10203b;}.cls-1{opacity:0.3;}.cls-2{opacity:0.24;}.cls-4{fill:none;}</style></defs><g id="Layer_2" data-name="Layer 2"><g id="Ear"><path class="cls-1" d="M207.92,671.87s-10.76-19.52-10.26-27.76,8-39.59-9.25-47.5c-13.37-6.13-37.92,11.12-43.71,31.56,0,0,18.75-29.1,35.58-22.64,0,0,10.06.31,8.44,19.73s2,27.09,6.47,31.94,11.41,11,12.12,16.43" transform="translate(142.04)"/><path class="cls-2" d="M.69,489.48s-21-514,406.1-483.19l.06,89.1S66.91,61.13.69,489.48Z" transform="translate(142.04)"/><path class="cls-3" d="M143,588.07a2.37,2.37,0,0,0,1.85-.11c.71-.35,17.68-8.76,32.52-27.63,13.71-17.42,27.94-47.35,17.93-91-.11-.47-11.83-46.93-64-43.13-17.94,1.31-35.61,16-47.24,39.27-8.36,16.75-17.31,45.39-12.45,86.83C76.22,591.78,92.24,633,119.2,675a2.44,2.44,0,0,0,2,1.12,2.34,2.34,0,0,0,1.31-.39,2.43,2.43,0,0,0,.73-3.35C51.66,561,78.46,487.55,88.37,467.7c10.69-21.42,27.28-35.44,43.25-36.6,48-3.57,58.51,37.65,58.93,39.41,9.55,41.65-3.93,70.16-17,86.74a101.17,101.17,0,0,1-30.94,26.38,2.43,2.43,0,0,0-1.11,3.25A2.67,2.67,0,0,0,143,588.07Z" transform="translate(142.04)"/><path class="cls-3" d="M200.86,628.09c.23-2.2.45-4.47.63-6.79,1.78-22.36-11-26.65-11-26.66-11.24-4.82-23.33-.6-35,12.2A97.92,97.92,0,0,0,141.59,627a2.44,2.44,0,0,0,1.1,3.25,2.42,2.42,0,0,0,3.25-1.1c.2-.4,20.28-39.64,42.81-30,.1,0,9.36,3.56,7.92,21.75-.17,2.28-.4,4.51-.63,6.77-1.18,11.76-2.2,21.92,3.8,32.48,6.76,11.92,9.2,21.39,7,27.42-1.13,3.15-3.51,5.38-7.29,6.84a2.36,2.36,0,0,0-1.34,1.27,2.45,2.45,0,0,0,0,1.86,2.41,2.41,0,0,0,2.26,1.56,2.19,2.19,0,0,0,.88-.17c5.1-2,8.5-5.23,10.12-9.73,2.68-7.48.19-18.07-7.39-31.44C198.81,648.55,199.74,639.1,200.86,628.09Z" transform="translate(142.04)"/><path class="cls-3" d="M142.73,389.07c-.36,0-35.65.37-62,32.49-30.33,36.92-37.14,98.83-20.26,184,.05.27,5.28,28.42,22,61.06,15.52,30.33,44.46,71.18,94.14,93.54a2.4,2.4,0,0,0,1,.21,2.45,2.45,0,0,0,2.22-1.42,2.45,2.45,0,0,0-1.23-3.22c-92.49-41.61-113.16-150-113.36-151.08C48.62,521,55.07,460.46,84.38,424.7c24.8-30.27,58-30.78,58.33-30.78,34.55,0,59.83,13,75.12,38.52,22.83,38.15,16.72,94.17,3.77,118.31a34.73,34.73,0,0,1-3.23,4.89c-8.83,11.52-13.06,16.4-14,17.08a2.38,2.38,0,0,0-1,1.58,2.44,2.44,0,0,0,.42,1.81,2.4,2.4,0,0,0,1.56,1,2.44,2.44,0,0,0,1.81-.42c1.75-1.26,6.81-7.34,15-18.06a41.43,41.43,0,0,0,3.65-5.56C239.34,527.94,245.72,469.64,222,430,205.77,402.82,179.1,389.07,142.73,389.07Z" transform="translate(142.04)"/><path class="cls-2" d="M143.92,1031.5h0a694.52,694.52,0,0,1-37.58,174.73l-7.68,21.65L229,1226.3l-3.91-141.38a385.87,385.87,0,0,0-24.38-119c-13.79-36.59-36.18-83.08-61.63-124.67C44.22,686.37,17.55,585.78,17.55,585.78c-2.44,30.6,75,239.31,98.42,297.06C116,882.84,154,972,143.92,1031.5Z" transform="translate(142.04)"/><path class="cls-3" d="M406.85,944.45c-71.1-34.73-117-81.56-143-115-28.75-36.89-40.3-65.89-40.42-66.19a1.62,1.62,0,0,0-2.1-.92,1.64,1.64,0,0,0-.92,2.1c.11.3,11.8,29.65,40.79,66.88C287.63,865.3,334.3,913,406.84,948v-3.59Z" transform="translate(142.04)"/><path class="cls-2" d="M223.43,763.25S297.31,880.72,406.87,901v46.46A548.13,548.13,0,0,1,324.32,896c-52-39.61-103.9-131.57-103.9-131.57Z" transform="translate(142.04)"/><path class="cls-2" d="M180.57,521.28c11.61-8.1,2.22-20.76-11.62-17.82-11.61,2.47-34,10.06-42.81,28.37-16.3,34.1,0,105.44,0,105.44s-15.44-65,22.29-101.61C164.58,520,175.79,524.62,180.57,521.28Z" transform="translate(142.04)"/><path class="cls-2" d="M152.36,449.25c17-1.37,19.27-26.07-21.69-20.37-13.16,1.83-36.93,14.18-47.36,39.16C47.83,553,107,649,107,649S60.92,565,96.34,492.87C106.29,472.68,118.9,452,152.36,449.25Z" transform="translate(142.04)"/><path class="cls-2" d="M156.05,413.06c-11.35-5.84-8.44-25.69,9.13-22,14.74,3.07,50.81,24.51,59,48.5,33.87,99.26-18.49,135.17-18.49,135.17s47.69-79.49-9.67-140.1C176.56,414,162.61,416.44,156.05,413.06Z" transform="translate(142.04)"/><path class="cls-3" d="M179.52,508.39a2.39,2.39,0,0,0,3-1.39,2.43,2.43,0,0,0-1.34-3.15c-2.07-.83-26.8-3.58-45.47,12.93-24.08,21.28-28,63.36-11.73,125.08a2.42,2.42,0,0,0,3,1.73,2.44,2.44,0,0,0,1.72-3c-15.07-57.07-12.21-98,8.26-118.34C154.79,504.54,179.38,508.36,179.52,508.39Z" transform="translate(142.04)"/><path class="cls-3" d="M407,4.34C346.34-6.45,284.81,2.9,224.14,32.11,134.08,75.47,64.74,156,33.89,253.06,10.73,326-12.6,437.39,7.87,554.3,25.83,656.93,58,739.09,86.39,811.56c29.48,75.29,59.7,140.48,55,205.57-3.15,43.1-17.6,120.07-33.32,169.62l-11.16,41.13h4.32l11.35-41.22c16.31-50.07,30.54-126.43,33.66-169.53,4.76-66-25.63-131.59-55.29-207.35C62.59,737.52,30.51,655.62,12.63,553.46c-20.28-116,2.88-226.57,25.89-298.93C69,158.74,137.39,79.25,226.24,36.48c59.93-28.84,120.65-38,180.47-27.26l1,.18V4.47Z" transform="translate(142.04)"/><line class="cls-4" y1="444.02" y2="551.05"/></g></g></svg>